<?xml version="1.0" encoding="UTF-8"?>
<svg xmlns="http://www.w3.org/2000/svg" xmlns:xlink="http://www.w3.org/1999/xlink" width="30pt" height="30pt" viewBox="0 0 30 30" version="1.1">
<g id="surface19842">
<path style=" stroke:none;fill-rule:nonzero;fill:rgb(9.019608%,9.019608%,9.411765%);fill-opacity:1;" d="M 21.539062 30 C 21.496094 30 21.453125 29.996094 21.410156 29.984375 C 21.214844 29.945312 21.054688 29.804688 20.980469 29.617188 L 16.6875 18.523438 L 10.800781 24.253906 L 10.800781 27.601562 C 10.800781 27.773438 10.726562 27.9375 10.597656 28.050781 L 8.558594 29.851562 C 8.398438 29.988281 8.179688 30.035156 7.980469 29.972656 C 7.78125 29.910156 7.628906 29.746094 7.578125 29.542969 L 6.164062 23.835938 L 0.457031 22.421875 C 0.238281 22.367188 0.0664062 22.195312 0.015625 21.976562 C -0.0351562 21.757812 0.0390625 21.527344 0.210938 21.382812 L 2.613281 19.34375 C 2.71875 19.25 2.859375 19.199219 3 19.199219 L 5.75 19.199219 L 11.476562 13.367188 L 0.382812 9.019531 C 0.195312 8.945312 0.0546875 8.78125 0.0117188 8.585938 C -0.03125 8.390625 0.03125 8.1875 0.167969 8.042969 L 2.210938 5.941406 C 2.34375 5.804688 2.53125 5.738281 2.71875 5.765625 L 17.125 7.707031 L 21.175781 3.65625 C 21.96875 2.8125 25.808594 0.117188 28.066406 0.117188 C 28.621094 0.117188 29.070312 0.277344 29.394531 0.585938 C 31.238281 2.511719 27.171875 7.996094 26.34375 8.824219 L 22.292969 12.875 L 24.234375 27.28125 C 24.261719 27.46875 24.195312 27.65625 24.058594 27.789062 L 21.957031 29.832031 C 21.84375 29.941406 21.695312 30 21.539062 30 Z M 21.539062 30 "/>
</g>
</svg>
