<?xml version="1.0" encoding="UTF-8"?>
<svg xmlns="http://www.w3.org/2000/svg" xmlns:xlink="http://www.w3.org/1999/xlink" width="30pt" height="30pt" viewBox="0 0 30 30" version="1.1">
<g id="surface16278">
<path style=" stroke:none;fill-rule:nonzero;fill:rgb(9.019608%,9.019608%,9.411765%);fill-opacity:1;" d="M 15 18.949219 C 15.828125 19.308594 16.40625 20.132812 16.40625 21.09375 C 16.40625 22.386719 15.355469 23.4375 14.0625 23.4375 C 12.769531 23.4375 11.71875 22.386719 11.71875 21.09375 C 11.71875 20.132812 12.296875 19.308594 13.125 18.949219 L 13.125 12.65625 C 13.125 12.136719 13.546875 11.71875 14.0625 11.71875 C 14.578125 11.71875 15 12.136719 15 12.65625 Z M 15 18.949219 "/>
<path style=" stroke:none;fill-rule:nonzero;fill:rgb(9.019608%,9.019608%,9.411765%);fill-opacity:1;" d="M 14.0625 26.71875 C 10.960938 26.71875 8.4375 24.195312 8.4375 21.09375 C 8.4375 19.710938 8.933594 18.402344 9.84375 17.375 L 9.84375 7.03125 C 9.84375 4.707031 11.734375 2.8125 14.0625 2.8125 C 16.390625 2.8125 18.28125 4.707031 18.28125 7.03125 L 18.28125 17.375 C 19.191406 18.402344 19.6875 19.710938 19.6875 21.09375 C 19.6875 24.195312 17.164062 26.71875 14.0625 26.71875 Z M 14.0625 4.6875 C 12.769531 4.6875 11.71875 5.738281 11.71875 7.03125 L 11.71875 17.75 C 11.71875 18 11.617188 18.242188 11.4375 18.417969 C 10.710938 19.128906 10.3125 20.082031 10.3125 21.09375 C 10.3125 23.160156 11.996094 24.84375 14.0625 24.84375 C 16.128906 24.84375 17.8125 23.160156 17.8125 21.09375 C 17.8125 20.082031 17.414062 19.128906 16.6875 18.417969 C 16.507812 18.242188 16.40625 18 16.40625 17.75 L 16.40625 7.03125 C 16.40625 5.738281 15.355469 4.6875 14.0625 4.6875 Z M 14.0625 4.6875 "/>
<path style=" stroke:none;fill-rule:nonzero;fill:rgb(9.019608%,9.019608%,9.411765%);fill-opacity:1;" d="M 21.796875 16.40625 L 19.921875 16.40625 C 19.535156 16.40625 19.21875 16.089844 19.21875 15.703125 C 19.21875 15.316406 19.535156 15 19.921875 15 L 21.796875 15 C 22.183594 15 22.5 15.316406 22.5 15.703125 C 22.5 16.089844 22.183594 16.40625 21.796875 16.40625 Z M 21.796875 16.40625 "/>
<path style=" stroke:none;fill-rule:nonzero;fill:rgb(9.019608%,9.019608%,9.411765%);fill-opacity:1;" d="M 21.796875 13.59375 L 19.921875 13.59375 C 19.535156 13.59375 19.21875 13.277344 19.21875 12.890625 C 19.21875 12.503906 19.535156 12.1875 19.921875 12.1875 L 21.796875 12.1875 C 22.183594 12.1875 22.5 12.503906 22.5 12.890625 C 22.5 13.277344 22.183594 13.59375 21.796875 13.59375 Z M 21.796875 13.59375 "/>
<path style=" stroke:none;fill-rule:nonzero;fill:rgb(9.019608%,9.019608%,9.411765%);fill-opacity:1;" d="M 21.796875 10.78125 L 19.921875 10.78125 C 19.535156 10.78125 19.21875 10.464844 19.21875 10.078125 C 19.21875 9.691406 19.535156 9.375 19.921875 9.375 L 21.796875 9.375 C 22.183594 9.375 22.5 9.691406 22.5 10.078125 C 22.5 10.464844 22.183594 10.78125 21.796875 10.78125 Z M 21.796875 10.78125 "/>
<path style=" stroke:none;fill-rule:nonzero;fill:rgb(9.019608%,9.019608%,9.411765%);fill-opacity:1;" d="M 21.796875 7.96875 L 19.921875 7.96875 C 19.535156 7.96875 19.21875 7.652344 19.21875 7.265625 C 19.21875 6.878906 19.535156 6.5625 19.921875 6.5625 L 21.796875 6.5625 C 22.183594 6.5625 22.5 6.878906 22.5 7.265625 C 22.5 7.652344 22.183594 7.96875 21.796875 7.96875 Z M 21.796875 7.96875 "/>
</g>
</svg>
