<?xml version="1.0" encoding="UTF-8"?>
<svg xmlns="http://www.w3.org/2000/svg" xmlns:xlink="http://www.w3.org/1999/xlink" width="30pt" height="30pt" viewBox="0 0 30 30" version="1.1">
<g id="surface16327">
<path style=" stroke:none;fill-rule:nonzero;fill:rgb(9.019608%,9.019608%,9.411765%);fill-opacity:1;" d="M 11.71875 18.011719 C 12.546875 18.371094 13.125 19.195312 13.125 20.15625 C 13.125 21.449219 12.074219 22.5 10.78125 22.5 C 9.488281 22.5 8.4375 21.449219 8.4375 20.15625 C 8.4375 19.195312 9.015625 18.371094 9.84375 18.011719 L 9.84375 12.65625 C 9.84375 12.136719 10.265625 11.71875 10.78125 11.71875 C 11.296875 11.71875 11.71875 12.136719 11.71875 12.65625 Z M 11.71875 18.011719 "/>
<path style=" stroke:none;fill-rule:nonzero;fill:rgb(9.019608%,9.019608%,9.411765%);fill-opacity:1;" d="M 10.78125 25.78125 C 7.679688 25.78125 5.15625 23.257812 5.15625 20.15625 C 5.15625 18.773438 5.652344 17.464844 6.5625 16.4375 L 6.5625 7.96875 C 6.5625 5.644531 8.453125 3.75 10.78125 3.75 C 13.109375 3.75 15 5.644531 15 7.96875 L 15 16.4375 C 15.910156 17.464844 16.40625 18.773438 16.40625 20.15625 C 16.40625 23.257812 13.882812 25.78125 10.78125 25.78125 Z M 10.78125 5.625 C 9.488281 5.625 8.4375 6.675781 8.4375 7.96875 L 8.4375 16.8125 C 8.4375 17.0625 8.335938 17.304688 8.15625 17.480469 C 7.429688 18.191406 7.03125 19.144531 7.03125 20.15625 C 7.03125 22.222656 8.714844 23.90625 10.78125 23.90625 C 12.847656 23.90625 14.53125 22.222656 14.53125 20.15625 C 14.53125 19.144531 14.132812 18.191406 13.40625 17.480469 C 13.226562 17.304688 13.125 17.0625 13.125 16.8125 L 13.125 7.96875 C 13.125 6.675781 12.074219 5.625 10.78125 5.625 Z M 10.78125 5.625 "/>
<path style=" stroke:none;fill-rule:nonzero;fill:rgb(9.019608%,9.019608%,9.411765%);fill-opacity:1;" d="M 22.734375 23.4375 C 21.828125 23.4375 21.09375 22.707031 21.09375 21.808594 C 21.09375 21.089844 21.808594 19.792969 22.296875 19 C 22.496094 18.671875 22.972656 18.671875 23.171875 19 C 23.660156 19.792969 24.375 21.089844 24.375 21.808594 C 24.375 22.707031 23.640625 23.4375 22.734375 23.4375 Z M 22.734375 23.4375 "/>
<path style=" stroke:none;fill-rule:nonzero;fill:rgb(9.019608%,9.019608%,9.411765%);fill-opacity:1;" d="M 19.453125 16.875 C 18.546875 16.875 17.8125 16.144531 17.8125 15.246094 C 17.8125 14.527344 18.527344 13.230469 19.015625 12.433594 C 19.214844 12.105469 19.691406 12.105469 19.890625 12.433594 C 20.378906 13.230469 21.09375 14.527344 21.09375 15.246094 C 21.09375 16.144531 20.359375 16.875 19.453125 16.875 Z M 19.453125 16.875 "/>
<path style=" stroke:none;fill-rule:nonzero;fill:rgb(9.019608%,9.019608%,9.411765%);fill-opacity:1;" d="M 22.734375 10.3125 C 21.828125 10.3125 21.09375 9.582031 21.09375 8.683594 C 21.09375 7.964844 21.808594 6.667969 22.296875 5.875 C 22.496094 5.546875 22.972656 5.546875 23.171875 5.875 C 23.660156 6.667969 24.375 7.964844 24.375 8.683594 C 24.375 9.582031 23.640625 10.3125 22.734375 10.3125 Z M 22.734375 10.3125 "/>
</g>
</svg>
