<?xml version="1.0" encoding="UTF-8"?>
<svg xmlns="http://www.w3.org/2000/svg" xmlns:xlink="http://www.w3.org/1999/xlink" width="30pt" height="30pt" viewBox="0 0 30 30" version="1.1">
<g id="surface21125">
<path style=" stroke:none;fill-rule:nonzero;fill:rgb(9.019608%,9.019608%,9.411765%);fill-opacity:1;" d="M 9.601562 30 C 9.511719 30 9.421875 29.980469 9.339844 29.941406 C 9.066406 29.808594 8.9375 29.496094 9.03125 29.210938 L 13.566406 15.601562 L 9 15.601562 C 8.800781 15.601562 8.613281 15.5 8.5 15.332031 C 8.390625 15.167969 8.367188 14.953125 8.445312 14.769531 L 14.445312 0.371094 C 14.539062 0.144531 14.757812 0 15 0 L 20.699219 0 C 20.902344 0 21.09375 0.101562 21.203125 0.273438 C 21.3125 0.445312 21.332031 0.660156 21.246094 0.84375 L 16.527344 11.398438 L 21 11.398438 C 21.21875 11.398438 21.421875 11.519531 21.527344 11.714844 C 21.632812 11.90625 21.621094 12.144531 21.503906 12.328125 L 10.101562 29.726562 C 9.988281 29.902344 9.796875 30 9.601562 30 Z M 9.601562 30 "/>
</g>
</svg>
