<?xml version="1.0" encoding="UTF-8"?>
<svg xmlns="http://www.w3.org/2000/svg" xmlns:xlink="http://www.w3.org/1999/xlink" width="30pt" height="30pt" viewBox="0 0 30 30" version="1.1">
<g id="surface26793">
<path style=" stroke:none;fill-rule:nonzero;fill:rgb(9.019608%,9.019608%,9.411765%);fill-opacity:1;" d="M 13.15625 17.550781 C 12.972656 17.550781 12.792969 17.484375 12.65625 17.34375 C 12.382812 17.070312 12.382812 16.625 12.65625 16.351562 L 19.042969 9.964844 C 19.320312 9.691406 19.761719 9.691406 20.039062 9.964844 C 20.3125 10.238281 20.3125 10.683594 20.039062 10.957031 L 13.652344 17.34375 C 13.515625 17.484375 13.335938 17.550781 13.15625 17.550781 Z M 13.15625 17.550781 "/>
<path style=" stroke:none;fill-rule:nonzero;fill:rgb(9.019608%,9.019608%,9.411765%);fill-opacity:1;" d="M 15.996094 14.003906 C 16.542969 14.554688 16.542969 15.445312 15.996094 15.996094 C 15.445312 16.542969 14.554688 16.542969 14.003906 15.996094 C 13.457031 15.445312 13.457031 14.554688 14.003906 14.003906 C 14.554688 13.457031 15.445312 13.457031 15.996094 14.003906 Z M 15.996094 14.003906 "/>
<path style=" stroke:none;fill-rule:nonzero;fill:rgb(9.019608%,9.019608%,9.411765%);fill-opacity:1;" d="M 13.425781 18.746094 C 13.039062 18.746094 12.722656 18.433594 12.722656 18.042969 C 12.722656 17.839844 12.644531 17.648438 12.5 17.503906 C 12.355469 17.359375 12.164062 17.28125 11.960938 17.28125 C 11.570312 17.28125 11.257812 16.964844 11.257812 16.578125 C 11.257812 16.1875 11.570312 15.875 11.960938 15.875 C 12.539062 15.875 13.082031 16.097656 13.492188 16.507812 C 13.902344 16.917969 14.128906 17.464844 14.128906 18.042969 C 14.128906 18.433594 13.8125 18.746094 13.425781 18.746094 Z M 13.425781 18.746094 "/>
<path style=" stroke:none;fill-rule:nonzero;fill:rgb(9.019608%,9.019608%,9.411765%);fill-opacity:1;" d="M 19.039062 12.667969 C 18.964844 12.667969 18.890625 12.65625 18.816406 12.632812 C 18.449219 12.507812 18.25 12.113281 18.371094 11.742188 L 18.429688 11.574219 L 18.257812 11.628906 C 17.890625 11.753906 17.492188 11.554688 17.371094 11.183594 C 17.246094 10.816406 17.445312 10.417969 17.8125 10.296875 L 19.320312 9.792969 C 19.570312 9.710938 19.847656 9.773438 20.039062 9.964844 C 20.226562 10.152344 20.292969 10.429688 20.207031 10.683594 L 19.707031 12.1875 C 19.609375 12.480469 19.335938 12.667969 19.039062 12.667969 Z M 19.039062 12.667969 "/>
<path style=" stroke:none;fill-rule:nonzero;fill:rgb(9.019608%,9.019608%,9.411765%);fill-opacity:1;" d="M 22.03125 15 C 22.03125 15.519531 21.613281 15.9375 21.09375 15.9375 C 20.574219 15.9375 20.15625 15.519531 20.15625 15 C 20.15625 14.480469 20.574219 14.0625 21.09375 14.0625 C 21.613281 14.0625 22.03125 14.480469 22.03125 15 Z M 22.03125 15 "/>
<path style=" stroke:none;fill-rule:nonzero;fill:rgb(9.019608%,9.019608%,9.411765%);fill-opacity:1;" d="M 20.246094 19.308594 C 20.246094 19.828125 19.828125 20.246094 19.308594 20.246094 C 18.789062 20.246094 18.371094 19.828125 18.371094 19.308594 C 18.371094 18.789062 18.789062 18.371094 19.308594 18.371094 C 19.828125 18.371094 20.246094 18.792969 20.246094 19.308594 Z M 20.246094 19.308594 "/>
<path style=" stroke:none;fill-rule:nonzero;fill:rgb(9.019608%,9.019608%,9.411765%);fill-opacity:1;" d="M 15.9375 21.09375 C 15.9375 21.613281 15.519531 22.03125 15 22.03125 C 14.480469 22.03125 14.0625 21.613281 14.0625 21.09375 C 14.0625 20.574219 14.480469 20.15625 15 20.15625 C 15.519531 20.15625 15.9375 20.574219 15.9375 21.09375 Z M 15.9375 21.09375 "/>
<path style=" stroke:none;fill-rule:nonzero;fill:rgb(9.019608%,9.019608%,9.411765%);fill-opacity:1;" d="M 11.628906 19.308594 C 11.628906 19.828125 11.210938 20.246094 10.691406 20.246094 C 10.171875 20.246094 9.753906 19.828125 9.753906 19.308594 C 9.753906 18.789062 10.171875 18.371094 10.691406 18.371094 C 11.207031 18.371094 11.628906 18.792969 11.628906 19.308594 Z M 11.628906 19.308594 "/>
<path style=" stroke:none;fill-rule:nonzero;fill:rgb(9.019608%,9.019608%,9.411765%);fill-opacity:1;" d="M 9.84375 15 C 9.84375 15.519531 9.425781 15.9375 8.90625 15.9375 C 8.386719 15.9375 7.96875 15.519531 7.96875 15 C 7.96875 14.480469 8.386719 14.0625 8.90625 14.0625 C 9.425781 14.0625 9.84375 14.480469 9.84375 15 Z M 9.84375 15 "/>
<path style=" stroke:none;fill-rule:nonzero;fill:rgb(9.019608%,9.019608%,9.411765%);fill-opacity:1;" d="M 11.628906 10.691406 C 11.628906 11.210938 11.210938 11.628906 10.691406 11.628906 C 10.171875 11.628906 9.753906 11.210938 9.753906 10.691406 C 9.753906 10.171875 10.171875 9.753906 10.691406 9.753906 C 11.210938 9.753906 11.628906 10.171875 11.628906 10.691406 Z M 11.628906 10.691406 "/>
<path style=" stroke:none;fill-rule:nonzero;fill:rgb(9.019608%,9.019608%,9.411765%);fill-opacity:1;" d="M 15.9375 8.90625 C 15.9375 9.425781 15.519531 9.84375 15 9.84375 C 14.480469 9.84375 14.0625 9.425781 14.0625 8.90625 C 14.0625 8.386719 14.480469 7.96875 15 7.96875 C 15.519531 7.96875 15.9375 8.386719 15.9375 8.90625 Z M 15.9375 8.90625 "/>
<path style=" stroke:none;fill-rule:nonzero;fill:rgb(9.019608%,9.019608%,9.411765%);fill-opacity:1;" d="M 15 25.78125 C 9.054688 25.78125 4.21875 20.945312 4.21875 15 C 4.21875 9.054688 9.054688 4.21875 15 4.21875 C 20.945312 4.21875 25.78125 9.054688 25.78125 15 C 25.78125 20.945312 20.945312 25.78125 15 25.78125 Z M 15 6.09375 C 10.089844 6.09375 6.09375 10.089844 6.09375 15 C 6.09375 19.910156 10.089844 23.90625 15 23.90625 C 19.910156 23.90625 23.90625 19.910156 23.90625 15 C 23.90625 10.089844 19.910156 6.09375 15 6.09375 Z M 15 6.09375 "/>
</g>
</svg>
