<?xml version="1.0" encoding="UTF-8"?>
<svg xmlns="http://www.w3.org/2000/svg" xmlns:xlink="http://www.w3.org/1999/xlink" width="30pt" height="30pt" viewBox="0 0 30 30" version="1.1">
<g id="surface17932">
<path style=" stroke:none;fill-rule:nonzero;fill:rgb(9.019608%,9.019608%,9.411765%);fill-opacity:1;" d="M 7.96875 25.78125 C 7.851562 25.78125 7.734375 25.757812 7.621094 25.714844 C 7.140625 25.523438 6.90625 24.976562 7.097656 24.496094 L 8.035156 22.152344 C 8.226562 21.671875 8.773438 21.433594 9.253906 21.628906 C 9.734375 21.820312 9.96875 22.367188 9.777344 22.847656 L 8.839844 25.191406 C 8.691406 25.558594 8.339844 25.78125 7.96875 25.78125 Z M 7.96875 25.78125 "/>
<path style=" stroke:none;fill-rule:nonzero;fill:rgb(9.019608%,9.019608%,9.411765%);fill-opacity:1;" d="M 14.0625 25.78125 C 13.945312 25.78125 13.828125 25.757812 13.714844 25.714844 C 13.234375 25.523438 13 24.976562 13.191406 24.496094 L 14.128906 22.152344 C 14.320312 21.671875 14.867188 21.433594 15.347656 21.628906 C 15.828125 21.820312 16.0625 22.367188 15.871094 22.847656 L 14.933594 25.191406 C 14.785156 25.558594 14.433594 25.78125 14.0625 25.78125 Z M 14.0625 25.78125 "/>
<path style=" stroke:none;fill-rule:nonzero;fill:rgb(9.019608%,9.019608%,9.411765%);fill-opacity:1;" d="M 20.15625 25.78125 C 20.039062 25.78125 19.921875 25.757812 19.808594 25.714844 C 19.328125 25.523438 19.09375 24.976562 19.285156 24.496094 L 20.222656 22.152344 C 20.414062 21.671875 20.960938 21.433594 21.441406 21.628906 C 21.921875 21.820312 22.15625 22.367188 21.964844 22.847656 L 21.027344 25.191406 C 20.878906 25.558594 20.527344 25.78125 20.15625 25.78125 Z M 20.15625 25.78125 "/>
<path style=" stroke:none;fill-rule:nonzero;fill:rgb(9.019608%,9.019608%,9.411765%);fill-opacity:1;" d="M 21.441406 19.6875 L 7.5 19.6875 C 7.464844 19.6875 7.429688 19.683594 7.398438 19.675781 C 5.164062 19.621094 3.363281 17.789062 3.363281 15.539062 C 3.363281 13.257812 5.21875 11.402344 7.5 11.402344 C 7.542969 7.691406 10.574219 4.6875 14.296875 4.6875 C 16.917969 4.6875 19.28125 6.179688 20.414062 8.519531 C 23.761719 8.082031 26.71875 10.714844 26.71875 14.078125 C 26.71875 16.996094 24.472656 19.453125 21.585938 19.6875 C 21.539062 19.703125 21.492188 19.6875 21.441406 19.6875 Z M 21.441406 19.6875 "/>
</g>
</svg>
