<?xml version="1.0" encoding="UTF-8"?>
<svg xmlns="http://www.w3.org/2000/svg" xmlns:xlink="http://www.w3.org/1999/xlink" width="30pt" height="30pt" viewBox="0 0 30 30" version="1.1">
<g id="surface20579">
<path style=" stroke:none;fill-rule:nonzero;fill:rgb(9.019608%,9.019608%,9.411765%);fill-opacity:1;" d="M 10.78125 26.71875 L 8.90625 26.71875 L 7.089844 7.894531 L 5.117188 15.9375 L 0.9375 15.9375 L 0.9375 14.0625 L 3.632812 14.0625 L 6.5625 1.875 L 8.4375 1.875 L 10.195312 20.597656 L 13.125 6.5625 L 15 6.5625 L 16.679688 14.0625 L 18.75 14.0625 L 18.75 15.9375 L 15.171875 15.9375 L 14.105469 11.304688 Z M 10.78125 26.71875 "/>
<path style=" stroke:none;fill-rule:nonzero;fill:rgb(9.019608%,9.019608%,9.411765%);fill-opacity:1;" d="M 21.5625 15 C 21.5625 16.035156 20.722656 16.875 19.6875 16.875 C 18.652344 16.875 17.8125 16.035156 17.8125 15 C 17.8125 13.964844 18.652344 13.125 19.6875 13.125 C 20.722656 13.125 21.5625 13.964844 21.5625 15 Z M 21.5625 15 "/>
<path style=" stroke:none;fill-rule:nonzero;fill:rgb(9.019608%,9.019608%,9.411765%);fill-opacity:1;" d="M 23.4375 15 C 23.4375 17.085938 22.164062 18.410156 22.164062 18.410156 L 22.796875 19.925781 C 24.316406 18.820312 25.3125 17.027344 25.3125 15 C 25.3125 12.972656 24.316406 11.179688 22.796875 10.074219 L 22.164062 11.589844 C 22.164062 11.589844 23.4375 12.914062 23.4375 15 Z M 23.4375 15 "/>
<path style=" stroke:none;fill-rule:nonzero;fill:rgb(9.019608%,9.019608%,9.411765%);fill-opacity:1;" d="M 27.1875 15 C 27.1875 18.902344 24.476562 21.59375 24.476562 21.59375 L 25.109375 23.113281 C 27.515625 21.226562 29.0625 18.292969 29.0625 15 C 29.0625 11.707031 27.515625 8.773438 25.109375 6.886719 L 24.476562 8.40625 C 24.476562 8.40625 27.1875 11.097656 27.1875 15 Z M 27.1875 15 "/>
</g>
</svg>
