<?xml version="1.0" encoding="UTF-8"?>
<svg xmlns="http://www.w3.org/2000/svg" xmlns:xlink="http://www.w3.org/1999/xlink" width="30pt" height="30pt" viewBox="0 0 30 30" version="1.1">
<g id="surface26876">
<path style=" stroke:none;fill-rule:nonzero;fill:rgb(9.019608%,9.019608%,9.411765%);fill-opacity:1;" d="M 15 8.90625 C 18.367188 8.90625 21.09375 11.632812 21.09375 15 C 21.09375 18.367188 18.367188 21.09375 15 21.09375 C 11.632812 21.09375 8.90625 18.367188 8.90625 15 C 8.90625 11.632812 11.632812 8.90625 15 8.90625 Z M 15 19.21875 C 17.332031 19.21875 19.21875 17.332031 19.21875 15 C 19.21875 12.667969 17.332031 10.78125 15 10.78125 C 12.667969 10.78125 10.78125 12.667969 10.78125 15 C 10.78125 17.332031 12.667969 19.21875 15 19.21875 Z M 15 19.21875 "/>
<path style=" stroke:none;fill-rule:nonzero;fill:rgb(9.019608%,9.019608%,9.411765%);fill-opacity:1;" d="M 15.9375 3.75 C 15.9375 3.921875 15.9375 6.390625 15.9375 6.5625 C 15.9375 7.082031 15.519531 7.5 15 7.5 C 14.480469 7.5 14.0625 7.082031 14.0625 6.5625 C 14.0625 6.390625 14.0625 3.921875 14.0625 3.75 C 14.0625 3.230469 14.480469 2.8125 15 2.8125 C 15.519531 2.8125 15.9375 3.230469 15.9375 3.75 Z M 15.9375 3.75 "/>
<path style=" stroke:none;fill-rule:nonzero;fill:rgb(9.019608%,9.019608%,9.411765%);fill-opacity:1;" d="M 23.617188 7.707031 C 23.496094 7.828125 21.75 9.574219 21.628906 9.695312 C 21.261719 10.0625 20.667969 10.0625 20.304688 9.695312 C 19.9375 9.332031 19.9375 8.738281 20.304688 8.371094 C 20.425781 8.25 22.171875 6.503906 22.292969 6.382812 C 22.660156 6.015625 23.25 6.015625 23.617188 6.382812 C 23.984375 6.75 23.984375 7.34375 23.617188 7.707031 Z M 23.617188 7.707031 "/>
<path style=" stroke:none;fill-rule:nonzero;fill:rgb(9.019608%,9.019608%,9.411765%);fill-opacity:1;" d="M 26.25 15.9375 C 26.078125 15.9375 23.609375 15.9375 23.4375 15.9375 C 22.917969 15.9375 22.5 15.519531 22.5 15 C 22.5 14.480469 22.917969 14.0625 23.4375 14.0625 C 23.609375 14.0625 26.078125 14.0625 26.25 14.0625 C 26.769531 14.0625 27.1875 14.480469 27.1875 15 C 27.1875 15.519531 26.769531 15.9375 26.25 15.9375 Z M 26.25 15.9375 "/>
<path style=" stroke:none;fill-rule:nonzero;fill:rgb(9.019608%,9.019608%,9.411765%);fill-opacity:1;" d="M 22.292969 23.617188 C 22.171875 23.496094 20.425781 21.75 20.304688 21.628906 C 19.9375 21.261719 19.9375 20.667969 20.304688 20.304688 C 20.667969 19.9375 21.261719 19.9375 21.628906 20.304688 C 21.75 20.425781 23.496094 22.171875 23.617188 22.292969 C 23.984375 22.660156 23.984375 23.25 23.617188 23.617188 C 23.25 23.984375 22.65625 23.984375 22.292969 23.617188 Z M 22.292969 23.617188 "/>
<path style=" stroke:none;fill-rule:nonzero;fill:rgb(9.019608%,9.019608%,9.411765%);fill-opacity:1;" d="M 14.0625 26.25 C 14.0625 26.078125 14.0625 23.609375 14.0625 23.4375 C 14.0625 22.917969 14.480469 22.5 15 22.5 C 15.519531 22.5 15.9375 22.917969 15.9375 23.4375 C 15.9375 23.609375 15.9375 26.078125 15.9375 26.25 C 15.9375 26.769531 15.519531 27.1875 15 27.1875 C 14.480469 27.1875 14.0625 26.769531 14.0625 26.25 Z M 14.0625 26.25 "/>
<path style=" stroke:none;fill-rule:nonzero;fill:rgb(9.019608%,9.019608%,9.411765%);fill-opacity:1;" d="M 6.382812 22.292969 C 6.503906 22.171875 8.25 20.425781 8.371094 20.304688 C 8.738281 19.9375 9.332031 19.9375 9.695312 20.304688 C 10.0625 20.667969 10.0625 21.261719 9.695312 21.628906 C 9.574219 21.75 7.828125 23.496094 7.707031 23.617188 C 7.339844 23.984375 6.75 23.984375 6.382812 23.617188 C 6.015625 23.25 6.015625 22.65625 6.382812 22.292969 Z M 6.382812 22.292969 "/>
<path style=" stroke:none;fill-rule:nonzero;fill:rgb(9.019608%,9.019608%,9.411765%);fill-opacity:1;" d="M 3.75 14.0625 C 3.921875 14.0625 6.390625 14.0625 6.5625 14.0625 C 7.082031 14.0625 7.5 14.480469 7.5 15 C 7.5 15.519531 7.082031 15.9375 6.5625 15.9375 C 6.390625 15.9375 3.921875 15.9375 3.75 15.9375 C 3.230469 15.9375 2.8125 15.519531 2.8125 15 C 2.8125 14.480469 3.230469 14.0625 3.75 14.0625 Z M 3.75 14.0625 "/>
<path style=" stroke:none;fill-rule:nonzero;fill:rgb(9.019608%,9.019608%,9.411765%);fill-opacity:1;" d="M 7.707031 6.382812 C 7.828125 6.503906 9.574219 8.25 9.695312 8.371094 C 10.0625 8.738281 10.0625 9.332031 9.695312 9.695312 C 9.332031 10.0625 8.738281 10.0625 8.371094 9.695312 C 8.25 9.574219 6.503906 7.828125 6.382812 7.707031 C 6.015625 7.339844 6.015625 6.75 6.382812 6.382812 C 6.75 6.015625 7.34375 6.015625 7.707031 6.382812 Z M 7.707031 6.382812 "/>
</g>
</svg>
