<?xml version="1.0" encoding="UTF-8"?>
<svg xmlns="http://www.w3.org/2000/svg" xmlns:xlink="http://www.w3.org/1999/xlink" width="15pt" height="15pt" viewBox="0 0 15 15" version="1.1">
<g id="surface18004">
<path style=" stroke:none;fill-rule:nonzero;fill:rgb(9.019608%,9.019608%,9.411765%);fill-opacity:1;" d="M 6.808594 2.34375 L 8.191406 2.34375 C 8.503906 2.34375 8.773438 2.570312 8.824219 2.878906 L 8.960938 3.671875 C 9.035156 3.699219 9.105469 3.726562 9.175781 3.757812 L 9.832031 3.296875 C 10.066406 3.128906 10.410156 3.125 10.65625 3.367188 L 11.632812 4.34375 C 11.855469 4.5625 11.886719 4.914062 11.703125 5.167969 L 11.242188 5.824219 C 11.273438 5.894531 11.300781 5.964844 11.328125 6.039062 L 12.121094 6.175781 C 12.429688 6.226562 12.65625 6.496094 12.65625 6.808594 L 12.65625 8.191406 C 12.65625 8.503906 12.429688 8.773438 12.121094 8.824219 L 11.328125 8.960938 C 11.300781 9.035156 11.273438 9.105469 11.242188 9.175781 L 11.703125 9.832031 C 11.886719 10.085938 11.855469 10.4375 11.632812 10.65625 L 10.65625 11.632812 C 10.394531 11.898438 10.023438 11.847656 9.832031 11.703125 L 9.175781 11.242188 C 9.105469 11.273438 9.035156 11.300781 8.960938 11.328125 L 8.824219 12.121094 C 8.773438 12.429688 8.503906 12.65625 8.191406 12.65625 L 6.808594 12.65625 C 6.496094 12.65625 6.226562 12.429688 6.175781 12.121094 L 6.039062 11.328125 C 5.964844 11.300781 5.894531 11.273438 5.824219 11.242188 L 5.167969 11.703125 C 4.953125 11.863281 4.597656 11.882812 4.34375 11.632812 L 3.367188 10.65625 C 3.144531 10.4375 3.113281 10.085938 3.296875 9.832031 L 3.757812 9.175781 C 3.726562 9.105469 3.699219 9.035156 3.671875 8.960938 L 2.878906 8.824219 C 2.570312 8.773438 2.34375 8.503906 2.34375 8.191406 L 2.34375 6.808594 C 2.34375 6.496094 2.570312 6.226562 2.878906 6.175781 L 3.671875 6.039062 C 3.699219 5.964844 3.726562 5.894531 3.757812 5.824219 L 3.296875 5.167969 C 3.113281 4.914062 3.144531 4.5625 3.367188 4.34375 L 4.34375 3.367188 C 4.542969 3.167969 4.882812 3.097656 5.167969 3.296875 L 5.824219 3.757812 C 5.894531 3.726562 5.964844 3.699219 6.039062 3.671875 L 6.175781 2.878906 C 6.226562 2.570312 6.496094 2.34375 6.808594 2.34375 Z M 7.949219 3.304688 C 7.945312 3.292969 7.933594 3.28125 7.917969 3.28125 L 7.082031 3.28125 C 7.066406 3.28125 7.054688 3.292969 7.050781 3.304688 L 6.871094 4.355469 C 6.46875 4.5 6.085938 4.65625 5.722656 4.832031 L 4.851562 4.21875 C 4.839844 4.210938 4.824219 4.210938 4.8125 4.21875 L 4.222656 4.8125 C 4.210938 4.824219 4.210938 4.839844 4.21875 4.851562 L 4.832031 5.722656 C 4.648438 6.105469 4.492188 6.488281 4.355469 6.871094 L 3.304688 7.050781 C 3.292969 7.054688 3.28125 7.066406 3.28125 7.082031 L 3.28125 7.917969 C 3.28125 7.933594 3.292969 7.945312 3.304688 7.949219 L 4.355469 8.128906 C 4.492188 8.503906 4.648438 8.886719 4.832031 9.277344 L 4.21875 10.148438 C 4.210938 10.160156 4.210938 10.175781 4.21875 10.1875 L 4.8125 10.777344 C 4.824219 10.789062 4.839844 10.789062 4.851562 10.78125 L 5.722656 10.167969 C 6.113281 10.355469 6.496094 10.511719 6.871094 10.644531 L 7.050781 11.695312 C 7.054688 11.707031 7.066406 11.71875 7.082031 11.71875 L 7.917969 11.71875 C 7.933594 11.71875 7.945312 11.707031 7.949219 11.695312 L 8.128906 10.644531 C 8.511719 10.507812 8.894531 10.347656 9.277344 10.167969 L 10.148438 10.78125 C 10.160156 10.789062 10.175781 10.789062 10.1875 10.78125 L 10.777344 10.1875 C 10.789062 10.175781 10.789062 10.160156 10.78125 10.148438 L 10.167969 9.277344 C 10.347656 8.902344 10.507812 8.519531 10.644531 8.128906 L 11.695312 7.949219 C 11.707031 7.945312 11.71875 7.933594 11.71875 7.917969 L 11.71875 7.082031 C 11.71875 7.066406 11.707031 7.054688 11.695312 7.050781 L 10.644531 6.871094 C 10.507812 6.480469 10.34375 6.097656 10.167969 5.722656 L 10.78125 4.851562 C 10.789062 4.839844 10.789062 4.824219 10.777344 4.8125 L 10.1875 4.222656 C 10.175781 4.210938 10.160156 4.210938 10.148438 4.21875 L 9.277344 4.832031 C 8.929688 4.664062 8.542969 4.503906 8.128906 4.355469 Z M 7.949219 3.304688 "/>
<path style=" stroke:none;fill-rule:nonzero;fill:rgb(9.019608%,9.019608%,9.411765%);fill-opacity:1;" d="M 7.5 5.390625 C 8.664062 5.390625 9.609375 6.335938 9.609375 7.5 C 9.609375 8.664062 8.664062 9.609375 7.5 9.609375 C 6.335938 9.609375 5.390625 8.664062 5.390625 7.5 C 5.390625 6.335938 6.335938 5.390625 7.5 5.390625 Z M 7.5 6.328125 C 6.851562 6.328125 6.328125 6.851562 6.328125 7.5 C 6.328125 8.148438 6.851562 8.671875 7.5 8.671875 C 8.148438 8.671875 8.671875 8.148438 8.671875 7.5 C 8.671875 6.851562 8.148438 6.328125 7.5 6.328125 Z M 7.5 6.328125 "/>
</g>
</svg>
