<?xml version="1.0" encoding="UTF-8"?>
<svg xmlns="http://www.w3.org/2000/svg" xmlns:xlink="http://www.w3.org/1999/xlink" width="15pt" height="15pt" viewBox="0 0 15 15" version="1.1">
<g id="surface17981">
<path style=" stroke:none;fill-rule:nonzero;fill:rgb(9.019608%,9.019608%,9.411765%);fill-opacity:1;" d="M 7.5 4.453125 C 9.183594 4.453125 10.546875 5.816406 10.546875 7.5 C 10.546875 9.183594 9.183594 10.546875 7.5 10.546875 C 5.816406 10.546875 4.453125 9.183594 4.453125 7.5 C 4.453125 5.816406 5.816406 4.453125 7.5 4.453125 Z M 7.5 9.609375 C 8.664062 9.609375 9.609375 8.664062 9.609375 7.5 C 9.609375 6.335938 8.664062 5.390625 7.5 5.390625 C 6.335938 5.390625 5.390625 6.335938 5.390625 7.5 C 5.390625 8.664062 6.335938 9.609375 7.5 9.609375 Z M 7.5 9.609375 "/>
<path style=" stroke:none;fill-rule:nonzero;fill:rgb(9.019608%,9.019608%,9.411765%);fill-opacity:1;" d="M 7.96875 1.875 C 7.96875 1.960938 7.96875 3.195312 7.96875 3.28125 C 7.96875 3.539062 7.757812 3.75 7.5 3.75 C 7.242188 3.75 7.03125 3.539062 7.03125 3.28125 C 7.03125 3.195312 7.03125 1.960938 7.03125 1.875 C 7.03125 1.617188 7.242188 1.40625 7.5 1.40625 C 7.757812 1.40625 7.96875 1.617188 7.96875 1.875 Z M 7.96875 1.875 "/>
<path style=" stroke:none;fill-rule:nonzero;fill:rgb(9.019608%,9.019608%,9.411765%);fill-opacity:1;" d="M 11.808594 3.855469 C 11.75 3.914062 10.875 4.789062 10.816406 4.847656 C 10.632812 5.03125 10.335938 5.03125 10.152344 4.847656 C 9.96875 4.664062 9.96875 4.367188 10.152344 4.1875 C 10.210938 4.125 11.085938 3.25 11.144531 3.191406 C 11.328125 3.007812 11.625 3.007812 11.808594 3.191406 C 11.992188 3.375 11.992188 3.671875 11.808594 3.855469 Z M 11.808594 3.855469 "/>
<path style=" stroke:none;fill-rule:nonzero;fill:rgb(9.019608%,9.019608%,9.411765%);fill-opacity:1;" d="M 13.125 7.96875 C 13.039062 7.96875 11.804688 7.96875 11.71875 7.96875 C 11.460938 7.96875 11.25 7.757812 11.25 7.5 C 11.25 7.242188 11.460938 7.03125 11.71875 7.03125 C 11.804688 7.03125 13.039062 7.03125 13.125 7.03125 C 13.382812 7.03125 13.59375 7.242188 13.59375 7.5 C 13.59375 7.757812 13.382812 7.96875 13.125 7.96875 Z M 13.125 7.96875 "/>
<path style=" stroke:none;fill-rule:nonzero;fill:rgb(9.019608%,9.019608%,9.411765%);fill-opacity:1;" d="M 11.144531 11.808594 C 11.085938 11.75 10.210938 10.875 10.152344 10.816406 C 9.96875 10.632812 9.96875 10.335938 10.152344 10.152344 C 10.335938 9.96875 10.632812 9.96875 10.8125 10.152344 C 10.875 10.210938 11.75 11.085938 11.808594 11.144531 C 11.992188 11.328125 11.992188 11.625 11.808594 11.808594 C 11.625 11.992188 11.328125 11.992188 11.144531 11.808594 Z M 11.144531 11.808594 "/>
<path style=" stroke:none;fill-rule:nonzero;fill:rgb(9.019608%,9.019608%,9.411765%);fill-opacity:1;" d="M 7.03125 13.125 C 7.03125 13.039062 7.03125 11.804688 7.03125 11.71875 C 7.03125 11.460938 7.242188 11.25 7.5 11.25 C 7.757812 11.25 7.96875 11.460938 7.96875 11.71875 C 7.96875 11.804688 7.96875 13.039062 7.96875 13.125 C 7.96875 13.382812 7.757812 13.59375 7.5 13.59375 C 7.242188 13.59375 7.03125 13.382812 7.03125 13.125 Z M 7.03125 13.125 "/>
<path style=" stroke:none;fill-rule:nonzero;fill:rgb(9.019608%,9.019608%,9.411765%);fill-opacity:1;" d="M 3.191406 11.144531 C 3.25 11.085938 4.125 10.210938 4.183594 10.152344 C 4.367188 9.96875 4.664062 9.96875 4.847656 10.152344 C 5.03125 10.335938 5.03125 10.632812 4.847656 10.8125 C 4.789062 10.875 3.914062 11.75 3.855469 11.808594 C 3.671875 11.992188 3.375 11.992188 3.191406 11.808594 C 3.007812 11.625 3.007812 11.328125 3.191406 11.144531 Z M 3.191406 11.144531 "/>
<path style=" stroke:none;fill-rule:nonzero;fill:rgb(9.019608%,9.019608%,9.411765%);fill-opacity:1;" d="M 1.875 7.03125 C 1.960938 7.03125 3.195312 7.03125 3.28125 7.03125 C 3.539062 7.03125 3.75 7.242188 3.75 7.5 C 3.75 7.757812 3.539062 7.96875 3.28125 7.96875 C 3.195312 7.96875 1.960938 7.96875 1.875 7.96875 C 1.617188 7.96875 1.40625 7.757812 1.40625 7.5 C 1.40625 7.242188 1.617188 7.03125 1.875 7.03125 Z M 1.875 7.03125 "/>
<path style=" stroke:none;fill-rule:nonzero;fill:rgb(9.019608%,9.019608%,9.411765%);fill-opacity:1;" d="M 3.855469 3.191406 C 3.914062 3.25 4.789062 4.125 4.847656 4.183594 C 5.03125 4.367188 5.03125 4.664062 4.847656 4.847656 C 4.664062 5.03125 4.367188 5.03125 4.1875 4.847656 C 4.125 4.789062 3.25 3.914062 3.191406 3.855469 C 3.007812 3.671875 3.007812 3.375 3.191406 3.191406 C 3.375 3.007812 3.671875 3.007812 3.855469 3.191406 Z M 3.855469 3.191406 "/>
</g>
</svg>
