<?xml version="1.0" encoding="UTF-8"?>
<svg xmlns="http://www.w3.org/2000/svg" xmlns:xlink="http://www.w3.org/1999/xlink" width="30pt" height="30pt" viewBox="0 0 30 30" version="1.1">
<g id="surface17039">
<path style=" stroke:none;fill-rule:nonzero;fill:rgb(9.019608%,9.019608%,9.411765%);fill-opacity:1;" d="M 15.417969 25.417969 C 13.515625 25.417969 12.082031 23.984375 12.082031 22.082031 C 12.082031 21.394531 12.644531 20.832031 13.332031 20.832031 C 14.023438 20.832031 14.582031 21.394531 14.582031 22.082031 C 14.582031 22.597656 14.902344 22.917969 15.417969 22.917969 C 15.929688 22.917969 16.25 22.597656 16.25 22.082031 C 16.25 21.914062 16.25 21.394531 15.53125 20.886719 C 14.050781 19.839844 10.476562 19.527344 5.835938 21.179688 C 5.183594 21.410156 4.46875 21.070312 4.238281 20.417969 C 4.007812 19.769531 4.347656 19.054688 4.996094 18.824219 C 9.898438 17.078125 14.484375 17.089844 16.972656 18.84375 C 18.121094 19.652344 18.75 20.804688 18.75 22.082031 C 18.75 23.984375 17.316406 25.417969 15.417969 25.417969 Z M 15.417969 25.417969 "/>
<path style=" stroke:none;fill-rule:nonzero;fill:rgb(9.019608%,9.019608%,9.411765%);fill-opacity:1;" d="M 22.332031 18.332031 C 19.703125 18.332031 17.988281 17.652344 16.332031 16.996094 C 14.824219 16.398438 13.402344 15.832031 11.25 15.832031 C 9.242188 15.832031 5.730469 16.628906 5.695312 16.636719 C 5.015625 16.789062 4.351562 16.367188 4.199219 15.695312 C 4.042969 15.019531 4.464844 14.351562 5.140625 14.199219 C 5.292969 14.164062 8.960938 13.332031 11.25 13.332031 C 13.878906 13.332031 15.59375 14.015625 17.253906 14.671875 C 18.757812 15.269531 20.179688 15.832031 22.332031 15.832031 C 23.292969 15.832031 24.167969 14.902344 24.167969 13.875 C 24.167969 12.886719 23.363281 12.082031 22.371094 12.082031 C 21.511719 12.082031 20.769531 12.695312 20.609375 13.539062 C 20.484375 14.21875 19.832031 14.664062 19.152344 14.535156 C 18.472656 14.410156 18.027344 13.753906 18.152344 13.078125 C 18.535156 11.050781 20.3125 9.582031 22.371094 9.582031 C 24.742188 9.582031 26.667969 11.507812 26.667969 13.875 C 26.667969 16.292969 24.683594 18.332031 22.332031 18.332031 Z M 22.332031 18.332031 "/>
<path style=" stroke:none;fill-rule:nonzero;fill:rgb(9.019608%,9.019608%,9.411765%);fill-opacity:1;" d="M 5.417969 12.5 C 4.902344 12.5 4.417969 12.179688 4.238281 11.664062 C 4.007812 11.015625 4.347656 10.300781 5 10.070312 C 5.105469 10.035156 7.585938 9.167969 10.054688 9.167969 C 11.277344 9.167969 12.140625 9.277344 12.980469 9.382812 C 13.777344 9.484375 14.527344 9.582031 15.589844 9.582031 C 16.160156 9.582031 16.625 9.117188 16.625 8.546875 C 16.625 7.976562 16.160156 7.515625 15.589844 7.515625 C 15.203125 7.515625 14.851562 7.726562 14.671875 8.070312 C 14.351562 8.683594 13.597656 8.917969 12.984375 8.601562 C 12.375 8.28125 12.136719 7.523438 12.457031 6.914062 C 13.066406 5.742188 14.269531 5.015625 15.589844 5.015625 C 17.539062 5.015625 19.125 6.597656 19.125 8.546875 C 19.125 10.496094 17.539062 12.082031 15.589844 12.082031 C 14.367188 12.082031 13.5 11.972656 12.664062 11.863281 C 11.867188 11.761719 11.117188 11.667969 10.054688 11.667969 C 8.023438 11.667969 5.855469 12.421875 5.832031 12.429688 C 5.695312 12.476562 5.554688 12.5 5.417969 12.5 Z M 5.417969 12.5 "/>
</g>
</svg>
