
<svg width="640" height="480" xmlns="http://www.w3.org/2000/svg">
  <image href="https://observatory.fallingdata.zone/maps/background-map.png" x="0" y="0" width="640" height="480" preserveAspectRatio="xMidYMid slice"/>
  <circle cx="320" cy="240" r="43" fill="none" stroke="#003366" stroke-width="1"/><circle cx="320" cy="240" r="86" fill="none" stroke="#003366" stroke-width="1"/><circle cx="320" cy="240" r="129" fill="none" stroke="#003366" stroke-width="1"/><circle cx="320" cy="240" r="172" fill="none" stroke="#003366" stroke-width="1"/>
  <text x="368" y="235" fill="#ffffff" font-size="9">5mi</text><text x="411" y="235" fill="#ffffff" font-size="9">10mi</text><text x="454" y="235" fill="#ffffff" font-size="9">15mi</text><text x="497" y="235" fill="#ffffff" font-size="9">20mi</text>
  <text x="320" y="15" fill="#fff" font-size="12" text-anchor="middle">N</text>
  <text x="320" y="475" fill="#fff" font-size="12" text-anchor="middle">S</text>
  <text x="10" y="243" fill="#fff" font-size="12" text-anchor="middle">W</text>
  <text x="630" y="243" fill="#fff" font-size="12" text-anchor="middle">E</text>
<polyline points="465.6052853149261,303.8360263406566 504.27849467437295,303.70185737421565 320.5800291962055,298.1165933274809 281.9161783881232,292.1589451770068 354.41506263694714,298.1041384367923 397.9172204916806,298.0527362067774 431.7521889370175,297.9852320451607 252.9183597604145,292.1268607383594" stroke="#888" stroke-width="0.5" fill="none" opacity="0.5"/><g transform="translate(465.6052853149261,303.8360263406566) rotate(182.33999999999997)"><g transform="scale(0.8)">
    <path stroke="#ffffff" stroke-width="2" fill="#0080ff" 
          d="M 9.15625 2.242188 C 8.921875 2.253906 8.652344 2.324219 8.417969 2.589844 C 8.101562 2.941406 8.125 3.441406 8.253906 3.792969 C 8.335938 4.007812 8.664062 4.765625 9.132812 5.921875 C 9.605469 7.074219 10.199219 8.570312 10.800781 10.035156 C 11.789062 12.453125 12.453125 14.042969 12.765625 14.800781 L 4.902344 14.800781 C 4.613281 14.246094 3.261719 11.636719 2.984375 11.101562 C 2.824219 10.792969 2.539062 10.574219 2.265625 10.476562 C 1.996094 10.378906 1.742188 10.367188 1.503906 10.359375 L 0.972656 10.359375 C 0.925781 10.359375 0.664062 10.328125 0.371094 10.546875 C 0.0742188 10.761719 0 11.164062 0.0234375 11.421875 C 0.0390625 11.613281 0.0507812 11.6875 0.09375 11.910156 C 0.136719 12.132812 0.207031 12.421875 0.277344 12.765625 C 0.417969 13.453125 0.582031 14.34375 0.761719 15.214844 C 1.113281 16.890625 1.453125 18.394531 1.480469 18.523438 C 1.417969 18.816406 0.0820312 25.1875 0.0234375 25.484375 C -0.0390625 25.773438 0.0859375 26.230469 0.347656 26.433594 C 0.605469 26.632812 0.832031 26.640625 0.972656 26.640625 L 1.480469 26.640625 C 1.855469 26.636719 2.085938 26.664062 2.429688 26.5 C 2.597656 26.421875 2.761719 26.273438 2.84375 26.15625 C 2.925781 26.035156 2.953125 25.960938 2.984375 25.898438 C 3.261719 25.363281 4.613281 22.753906 4.902344 22.199219 L 12.765625 22.199219 C 12.453125 22.957031 11.789062 24.546875 10.800781 26.964844 C 10.199219 28.429688 9.605469 29.925781 9.132812 31.078125 C 8.664062 32.234375 8.335938 32.992188 8.253906 33.207031 C 8.125 33.558594 8.101562 34.058594 8.417969 34.410156 C 8.734375 34.761719 9.117188 34.78125 9.390625 34.757812 C 9.671875 34.734375 10.476562 34.644531 11.125 34.570312 C 11.863281 34.492188 12.335938 33.9375 12.441406 33.808594 C 12.5 33.734375 12.636719 33.570312 12.902344 33.230469 C 13.167969 32.890625 13.527344 32.425781 13.96875 31.867188 C 14.847656 30.742188 16.027344 29.269531 17.183594 27.796875 C 19.382812 24.984375 21.375 22.453125 21.574219 22.199219 L 32.375 22.199219 C 33.96875 22.199219 35.148438 21.539062 35.890625 20.765625 C 36.261719 20.378906 36.539062 19.96875 36.722656 19.585938 C 36.90625 19.207031 37 18.871094 37 18.5 C 37 18.128906 36.882812 17.792969 36.699219 17.414062 C 36.515625 17.03125 36.261719 16.621094 35.890625 16.234375 C 35.144531 15.460938 33.9375 14.800781 32.351562 14.800781 L 21.574219 14.800781 C 21.375 14.546875 19.382812 12.015625 17.183594 9.203125 C 16.027344 7.730469 14.847656 6.257812 13.96875 5.132812 C 13.527344 4.574219 13.167969 4.109375 12.902344 3.769531 C 12.636719 3.429688 12.5 3.265625 12.441406 3.191406 C 12.335938 3.0625 11.863281 2.507812 11.125 2.429688 C 10.476562 2.355469 9.671875 2.265625 9.390625 2.242188 C 9.320312 2.238281 9.234375 2.242188 9.15625 2.242188 Z"/>
  </g></g><text x="475.6052853149261" y="298.8360263406566" fill="#0080ff" font-size="7">NKS2294</text><polyline points="407.67182676126436,345.5750172384253 368.9890389631906,369.4001226180558 339.9491218022958,381.3059152159438 436.67308870405407,333.6279389883632 301.20595254942674,399.1335638265694 475.3123721983949,315.69019577991514 267.2729796541613,422.87771787627776 509.0653976652291,291.7981226486734 238.17529114747094,434.72152617840743 542.840177756213,279.7667524845478" stroke="#888" stroke-width="0.5" fill="none" opacity="0.5"/><g transform="translate(407.67182676126436,345.5750172384253) rotate(153.16)"><g transform="scale(0.8)">
    <path stroke="#ffffff" stroke-width="2" fill="#ffff00" 
          d="M 9.15625 2.242188 C 8.921875 2.253906 8.652344 2.324219 8.417969 2.589844 C 8.101562 2.941406 8.125 3.441406 8.253906 3.792969 C 8.335938 4.007812 8.664062 4.765625 9.132812 5.921875 C 9.605469 7.074219 10.199219 8.570312 10.800781 10.035156 C 11.789062 12.453125 12.453125 14.042969 12.765625 14.800781 L 4.902344 14.800781 C 4.613281 14.246094 3.261719 11.636719 2.984375 11.101562 C 2.824219 10.792969 2.539062 10.574219 2.265625 10.476562 C 1.996094 10.378906 1.742188 10.367188 1.503906 10.359375 L 0.972656 10.359375 C 0.925781 10.359375 0.664062 10.328125 0.371094 10.546875 C 0.0742188 10.761719 0 11.164062 0.0234375 11.421875 C 0.0390625 11.613281 0.0507812 11.6875 0.09375 11.910156 C 0.136719 12.132812 0.207031 12.421875 0.277344 12.765625 C 0.417969 13.453125 0.582031 14.34375 0.761719 15.214844 C 1.113281 16.890625 1.453125 18.394531 1.480469 18.523438 C 1.417969 18.816406 0.0820312 25.1875 0.0234375 25.484375 C -0.0390625 25.773438 0.0859375 26.230469 0.347656 26.433594 C 0.605469 26.632812 0.832031 26.640625 0.972656 26.640625 L 1.480469 26.640625 C 1.855469 26.636719 2.085938 26.664062 2.429688 26.5 C 2.597656 26.421875 2.761719 26.273438 2.84375 26.15625 C 2.925781 26.035156 2.953125 25.960938 2.984375 25.898438 C 3.261719 25.363281 4.613281 22.753906 4.902344 22.199219 L 12.765625 22.199219 C 12.453125 22.957031 11.789062 24.546875 10.800781 26.964844 C 10.199219 28.429688 9.605469 29.925781 9.132812 31.078125 C 8.664062 32.234375 8.335938 32.992188 8.253906 33.207031 C 8.125 33.558594 8.101562 34.058594 8.417969 34.410156 C 8.734375 34.761719 9.117188 34.78125 9.390625 34.757812 C 9.671875 34.734375 10.476562 34.644531 11.125 34.570312 C 11.863281 34.492188 12.335938 33.9375 12.441406 33.808594 C 12.5 33.734375 12.636719 33.570312 12.902344 33.230469 C 12.636719 3.429688 12.5 3.265625 12.441406 3.191406 C 12.335938 3.0625 11.863281 2.507812 11.125 2.429688 C 10.476562 2.355469 9.671875 2.265625 9.390625 2.242188 C 9.320312 2.238281 9.234375 2.242188 9.15625 2.242188 Z"/>
  </g></g><text x="417.67182676126436" y="340.5750172384253" fill="#ffff00" font-size="7">N998GP</text><polyline points="412.62542166023695,404.9897464091383 422.33968433118,416.85472773655715 436.9055713528978,428.7061171883786" stroke="#888" stroke-width="0.5" fill="none" opacity="0.5"/><g transform="translate(412.62542166023695,404.9897464091383) rotate(224.77999999999997)"><g transform="scale(0.8)">
    <path stroke="#ffffff" stroke-width="2" fill="#ffff00" 
          d="M 9.15625 2.242188 C 8.921875 2.253906 8.652344 2.324219 8.417969 2.589844 C 8.101562 2.941406 8.125 3.441406 8.253906 3.792969 C 8.335938 4.007812 8.664062 4.765625 9.132812 5.921875 C 9.605469 7.074219 10.199219 8.570312 10.800781 10.035156 C 11.789062 12.453125 12.453125 14.042969 12.765625 14.800781 L 4.902344 14.800781 C 4.613281 14.246094 3.261719 11.636719 2.984375 11.101562 C 2.824219 10.792969 2.539062 10.574219 2.265625 10.476562 C 1.996094 10.378906 1.742188 10.367188 1.503906 10.359375 L 0.972656 10.359375 C 0.925781 10.359375 0.664062 10.328125 0.371094 10.546875 C 0.0742188 10.761719 0 11.164062 0.0234375 11.421875 C 0.0390625 11.613281 0.0507812 11.6875 0.09375 11.910156 C 0.136719 12.132812 0.207031 12.421875 0.277344 12.765625 C 0.417969 13.453125 0.582031 14.34375 0.761719 15.214844 C 1.113281 16.890625 1.453125 18.394531 1.480469 18.523438 C 1.417969 18.816406 0.0820312 25.1875 0.0234375 25.484375 C -0.0390625 25.773438 0.0859375 26.230469 0.347656 26.433594 C 0.605469 26.632812 0.832031 26.640625 0.972656 26.640625 L 1.480469 26.640625 C 1.855469 26.636719 2.085938 26.664062 2.429688 26.5 C 2.597656 26.421875 2.761719 26.273438 2.84375 26.15625 C 2.925781 26.035156 2.953125 25.960938 2.984375 25.898438 C 3.261719 25.363281 4.613281 22.753906 4.902344 22.199219 L 12.765625 22.199219 C 12.453125 22.957031 11.789062 24.546875 10.800781 26.964844 C 10.199219 28.429688 9.605469 29.925781 9.132812 31.078125 C 8.664062 32.234375 8.335938 32.992188 8.253906 33.207031 C 8.125 33.558594 8.101562 34.058594 8.417969 34.410156 C 8.734375 34.761719 9.117188 34.78125 9.390625 34.757812 C 9.671875 34.734375 10.476562 34.644531 11.125 34.570312 C 11.863281 34.492188 12.335938 33.9375 12.441406 33.808594 C 12.5 33.734375 12.636719 33.570312 12.902344 33.230469 C 12.636719 3.429688 12.5 3.265625 12.441406 3.191406 C 12.335938 3.0625 11.863281 2.507812 11.125 2.429688 C 10.476562 2.355469 9.671875 2.265625 9.390625 2.242188 C 9.320312 2.238281 9.234375 2.242188 9.15625 2.242188 Z"/>
  </g></g><text x="422.62542166023695" y="399.9897464091383" fill="#ffff00" font-size="7">N340FP</text><polyline points="141.4711605339153,369.0908691319248 170.51587822455886,369.1908358851415" stroke="#888" stroke-width="0.5" fill="none" opacity="0.5"/><g transform="translate(141.4711605339153,369.0908691319248) rotate(179.69)"><g transform="scale(0.8)">
    <path stroke="#ffffff" stroke-width="2" fill="#ffff00" 
          d="M 9.15625 2.242188 C 8.921875 2.253906 8.652344 2.324219 8.417969 2.589844 C 8.101562 2.941406 8.125 3.441406 8.253906 3.792969 C 8.335938 4.007812 8.664062 4.765625 9.132812 5.921875 C 9.605469 7.074219 10.199219 8.570312 10.800781 10.035156 C 11.789062 12.453125 12.453125 14.042969 12.765625 14.800781 L 4.902344 14.800781 C 4.613281 14.246094 3.261719 11.636719 2.984375 11.101562 C 2.824219 10.792969 2.539062 10.574219 2.265625 10.476562 C 1.996094 10.378906 1.742188 10.367188 1.503906 10.359375 L 0.972656 10.359375 C 0.925781 10.359375 0.664062 10.328125 0.371094 10.546875 C 0.0742188 10.761719 0 11.164062 0.0234375 11.421875 C 0.0390625 11.613281 0.0507812 11.6875 0.09375 11.910156 C 0.136719 12.132812 0.207031 12.421875 0.277344 12.765625 C 0.417969 13.453125 0.582031 14.34375 0.761719 15.214844 C 1.113281 16.890625 1.453125 18.394531 1.480469 18.523438 C 1.417969 18.816406 0.0820312 25.1875 0.0234375 25.484375 C -0.0390625 25.773438 0.0859375 26.230469 0.347656 26.433594 C 0.605469 26.632812 0.832031 26.640625 0.972656 26.640625 L 1.480469 26.640625 C 1.855469 26.636719 2.085938 26.664062 2.429688 26.5 C 2.597656 26.421875 2.761719 26.273438 2.84375 26.15625 C 2.925781 26.035156 2.953125 25.960938 2.984375 25.898438 C 3.261719 25.363281 4.613281 22.753906 4.902344 22.199219 L 12.765625 22.199219 C 12.453125 22.957031 11.789062 24.546875 10.800781 26.964844 C 10.199219 28.429688 9.605469 29.925781 9.132812 31.078125 C 8.664062 32.234375 8.335938 32.992188 8.253906 33.207031 C 8.125 33.558594 8.101562 34.058594 8.417969 34.410156 C 8.734375 34.761719 9.117188 34.78125 9.390625 34.757812 C 9.671875 34.734375 10.476562 34.644531 11.125 34.570312 C 11.863281 34.492188 12.335938 33.9375 12.441406 33.808594 C 12.5 33.734375 12.636719 33.570312 12.902344 33.230469 C 12.636719 3.429688 12.5 3.265625 12.441406 3.191406 C 12.335938 3.0625 11.863281 2.507812 11.125 2.429688 C 10.476562 2.355469 9.671875 2.265625 9.390625 2.242188 C 9.320312 2.238281 9.234375 2.242188 9.15625 2.242188 Z"/>
  </g></g><text x="151.4711605339153" y="364.0908691319248" fill="#ffff00" font-size="7">SKW6517</text><g transform="translate(141.56008624456283,345.3213578716456) rotate(0.12000000000000455)"><g transform="scale(0.8)">
    <path stroke="#ffffff" stroke-width="2" fill="#ffff00" 
          d="M 9.15625 2.242188 C 8.921875 2.253906 8.652344 2.324219 8.417969 2.589844 C 8.101562 2.941406 8.125 3.441406 8.253906 3.792969 C 8.335938 4.007812 8.664062 4.765625 9.132812 5.921875 C 9.605469 7.074219 10.199219 8.570312 10.800781 10.035156 C 11.789062 12.453125 12.453125 14.042969 12.765625 14.800781 L 4.902344 14.800781 C 4.613281 14.246094 3.261719 11.636719 2.984375 11.101562 C 2.824219 10.792969 2.539062 10.574219 2.265625 10.476562 C 1.996094 10.378906 1.742188 10.367188 1.503906 10.359375 L 0.972656 10.359375 C 0.925781 10.359375 0.664062 10.328125 0.371094 10.546875 C 0.0742188 10.761719 0 11.164062 0.0234375 11.421875 C 0.0390625 11.613281 0.0507812 11.6875 0.09375 11.910156 C 0.136719 12.132812 0.207031 12.421875 0.277344 12.765625 C 0.417969 13.453125 0.582031 14.34375 0.761719 15.214844 C 1.113281 16.890625 1.453125 18.394531 1.480469 18.523438 C 1.417969 18.816406 0.0820312 25.1875 0.0234375 25.484375 C -0.0390625 25.773438 0.0859375 26.230469 0.347656 26.433594 C 0.605469 26.632812 0.832031 26.640625 0.972656 26.640625 L 1.480469 26.640625 C 1.855469 26.636719 2.085938 26.664062 2.429688 26.5 C 2.597656 26.421875 2.761719 26.273438 2.84375 26.15625 C 2.925781 26.035156 2.953125 25.960938 2.984375 25.898438 C 3.261719 25.363281 4.613281 22.753906 4.902344 22.199219 L 12.765625 22.199219 C 12.453125 22.957031 11.789062 24.546875 10.800781 26.964844 C 10.199219 28.429688 9.605469 29.925781 9.132812 31.078125 C 8.664062 32.234375 8.335938 32.992188 8.253906 33.207031 C 8.125 33.558594 8.101562 34.058594 8.417969 34.410156 C 8.734375 34.761719 9.117188 34.78125 9.390625 34.757812 C 9.671875 34.734375 10.476562 34.644531 11.125 34.570312 C 11.863281 34.492188 12.335938 33.9375 12.441406 33.808594 C 12.5 33.734375 12.636719 33.570312 12.902344 33.230469 C 13.167969 32.890625 13.527344 32.425781 13.96875 31.867188 C 14.847656 30.742188 16.027344 29.269531 17.183594 27.796875 C 19.382812 24.984375 21.375 22.453125 21.574219 22.199219 L 32.375 22.199219 C 33.96875 22.199219 35.148438 21.539062 35.890625 20.765625 C 36.261719 20.378906 36.539062 19.96875 36.722656 19.585938 C 36.90625 19.207031 37 18.871094 37 18.5 C 37 18.128906 36.882812 17.792969 36.699219 17.414062 C 36.515625 17.03125 36.261719 16.621094 35.890625 16.234375 C 35.144531 15.460938 33.9375 14.800781 32.351562 14.800781 L 21.574219 14.800781 C 21.375 14.546875 19.382812 12.015625 17.183594 9.203125 C 16.027344 7.730469 14.847656 6.257812 13.96875 5.132812 C 13.527344 4.574219 13.167969 4.109375 12.902344 3.769531 C 12.636719 3.429688 12.5 3.265625 12.441406 3.191406 C 12.335938 3.0625 11.863281 2.507812 11.125 2.429688 C 10.476562 2.355469 9.671875 2.265625 9.390625 2.242188 C 9.320312 2.238281 9.234375 2.242188 9.15625 2.242188 Z"/>
  </g></g><text x="151.56008624456283" y="340.3213578716456" fill="#ffff00" font-size="7">DAL528</text><g transform="translate(344.83427288870996,464.4971316228715) rotate(-4.659999999999997)"><g transform="scale(0.8)">
    <path stroke="#ffffff" stroke-width="2" fill="#0080ff" 
          d="M 9.15625 2.242188 C 8.921875 2.253906 8.652344 2.324219 8.417969 2.589844 C 8.101562 2.941406 8.125 3.441406 8.253906 3.792969 C 8.335938 4.007812 8.664062 4.765625 9.132812 5.921875 C 9.605469 7.074219 10.199219 8.570312 10.800781 10.035156 C 11.789062 12.453125 12.453125 14.042969 12.765625 14.800781 L 4.902344 14.800781 C 4.613281 14.246094 3.261719 11.636719 2.984375 11.101562 C 2.824219 10.792969 2.539062 10.574219 2.265625 10.476562 C 1.996094 10.378906 1.742188 10.367188 1.503906 10.359375 L 0.972656 10.359375 C 0.925781 10.359375 0.664062 10.328125 0.371094 10.546875 C 0.0742188 10.761719 0 11.164062 0.0234375 11.421875 C 0.0390625 11.613281 0.0507812 11.6875 0.09375 11.910156 C 0.136719 12.132812 0.207031 12.421875 0.277344 12.765625 C 0.417969 13.453125 0.582031 14.34375 0.761719 15.214844 C 1.113281 16.890625 1.453125 18.394531 1.480469 18.523438 C 1.417969 18.816406 0.0820312 25.1875 0.0234375 25.484375 C -0.0390625 25.773438 0.0859375 26.230469 0.347656 26.433594 C 0.605469 26.632812 0.832031 26.640625 0.972656 26.640625 L 1.480469 26.640625 C 1.855469 26.636719 2.085938 26.664062 2.429688 26.5 C 2.597656 26.421875 2.761719 26.273438 2.84375 26.15625 C 2.925781 26.035156 2.953125 25.960938 2.984375 25.898438 C 3.261719 25.363281 4.613281 22.753906 4.902344 22.199219 L 12.765625 22.199219 C 12.453125 22.957031 11.789062 24.546875 10.800781 26.964844 C 10.199219 28.429688 9.605469 29.925781 9.132812 31.078125 C 8.664062 32.234375 8.335938 32.992188 8.253906 33.207031 C 8.125 33.558594 8.101562 34.058594 8.417969 34.410156 C 8.734375 34.761719 9.117188 34.78125 9.390625 34.757812 C 9.671875 34.734375 10.476562 34.644531 11.125 34.570312 C 11.863281 34.492188 12.335938 33.9375 12.441406 33.808594 C 12.5 33.734375 12.636719 33.570312 12.902344 33.230469 C 12.636719 3.429688 12.5 3.265625 12.441406 3.191406 C 12.335938 3.0625 11.863281 2.507812 11.125 2.429688 C 10.476562 2.355469 9.671875 2.265625 9.390625 2.242188 C 9.320312 2.238281 9.234375 2.242188 9.15625 2.242188 Z"/>
  </g></g><text x="354.83427288870996" y="459.4971316228715" fill="#0080ff" font-size="7">SWA3133</text>
<rect x="10" y="10" width="200" height="120" fill="#000000" fill-opacity="0.8" stroke="#ffffff" stroke-width="1"/>
<text x="15" y="25" fill="#ffffff" font-size="11" font-weight="bold">Aircraft Traffic - Liberty Hill</text>

  <circle cx="20" cy="35" r="3" fill="#0080ff"/>
  <text x="30" y="39" fill="#ffffff" font-size="9">Commercial Aviation</text>

  <circle cx="20" cy="47" r="3" fill="#ffff00"/>
  <text x="30" y="51" fill="#ffffff" font-size="9">General Aviation</text>

  <circle cx="20" cy="59" r="3" fill="#ff0000"/>
  <text x="30" y="63" fill="#ffffff" font-size="9">Medical/Emergency</text>

  <circle cx="20" cy="71" r="3" fill="#00ff00"/>
  <text x="30" y="75" fill="#ffffff" font-size="9">Military/Government</text>

  <circle cx="20" cy="83" r="3" fill="#ffa500"/>
  <text x="30" y="87" fill="#ffffff" font-size="9">Balloons/Research</text>

<text x="15" y="105" fill="#ffffff" font-size="9">Aircraft: 6 | Map Coverage: ~37×28mi</text>
<text x="15" y="115" fill="#ffffff" font-size="8">Updated: 03:34:05 PM CT</text>
</svg>
