
<svg width="640" height="480" xmlns="http://www.w3.org/2000/svg">
  <image href="background-map.png" x="0" y="0" width="640" height="480" preserveAspectRatio="none"/>
  <circle cx="320" cy="240" r="43" fill="none" stroke="#003366" stroke-width="1"/><circle cx="320" cy="240" r="86" fill="none" stroke="#003366" stroke-width="1"/><circle cx="320" cy="240" r="129" fill="none" stroke="#003366" stroke-width="1"/><circle cx="320" cy="240" r="172" fill="none" stroke="#003366" stroke-width="1"/>
  <text x="368" y="235" fill="#ffffff" font-size="9">5mi</text><text x="411" y="235" fill="#ffffff" font-size="9">10mi</text><text x="454" y="235" fill="#ffffff" font-size="9">15mi</text><text x="497" y="235" fill="#ffffff" font-size="9">20mi</text>
  <text x="320" y="15" fill="#fff" font-size="12" text-anchor="middle">N</text>
  <text x="320" y="475" fill="#fff" font-size="12" text-anchor="middle">S</text>
  <text x="10" y="243" fill="#fff" font-size="12" text-anchor="middle">W</text>
  <text x="630" y="243" fill="#fff" font-size="12" text-anchor="middle">E</text>
<polyline points="388.1220415333725,208.93174715132912 368.79338268916246,179.24360386124113 407.47486465642237,238.61201918697685 349.48892071896523,149.54759449686748 431.69633285883145,274.21568582896566 330.20740186687556,113.90133202195305 451.10280561554123,303.8782293767987 315.76510194163166,90.13267573845027 470.53333774077237,333.53288523623974 291.7210421407174,60.412422478677286 282.1215118510514,36.63610486054455 490.0090619909106,369.1220276073504" stroke="#888" stroke-width="0.5" fill="none" opacity="0.5"/><g transform="translate(388.1220415333725,208.93174715132912) rotate(237.37)"><g transform="scale(0.8)">
    <path stroke="#ffffff" stroke-width="2" fill="#0080ff" 
          d="M 9.15625 2.242188 C 8.921875 2.253906 8.652344 2.324219 8.417969 2.589844 C 8.101562 2.941406 8.125 3.441406 8.253906 3.792969 C 8.335938 4.007812 8.664062 4.765625 9.132812 5.921875 C 9.605469 7.074219 10.199219 8.570312 10.800781 10.035156 C 11.789062 12.453125 12.453125 14.042969 12.765625 14.800781 L 4.902344 14.800781 C 4.613281 14.246094 3.261719 11.636719 2.984375 11.101562 C 2.824219 10.792969 2.539062 10.574219 2.265625 10.476562 C 1.996094 10.378906 1.742188 10.367188 1.503906 10.359375 L 0.972656 10.359375 C 0.925781 10.359375 0.664062 10.328125 0.371094 10.546875 C 0.0742188 10.761719 0 11.164062 0.0234375 11.421875 C 0.0390625 11.613281 0.0507812 11.6875 0.09375 11.910156 C 0.136719 12.132812 0.207031 12.421875 0.277344 12.765625 C 0.417969 13.453125 0.582031 14.34375 0.761719 15.214844 C 1.113281 16.890625 1.453125 18.394531 1.480469 18.523438 C 1.417969 18.816406 0.0820312 25.1875 0.0234375 25.484375 C -0.0390625 25.773438 0.0859375 26.230469 0.347656 26.433594 C 0.605469 26.632812 0.832031 26.640625 0.972656 26.640625 L 1.480469 26.640625 C 1.855469 26.636719 2.085938 26.664062 2.429688 26.5 C 2.597656 26.421875 2.761719 26.273438 2.84375 26.15625 C 2.925781 26.035156 2.953125 25.960938 2.984375 25.898438 C 3.261719 25.363281 4.613281 22.753906 4.902344 22.199219 L 12.765625 22.199219 C 12.453125 22.957031 11.789062 24.546875 10.800781 26.964844 C 10.199219 28.429688 9.605469 29.925781 9.132812 31.078125 C 8.664062 32.234375 8.335938 32.992188 8.253906 33.207031 C 8.125 33.558594 8.101562 34.058594 8.417969 34.410156 C 8.734375 34.761719 9.117188 34.78125 9.390625 34.757812 C 9.671875 34.734375 10.476562 34.644531 11.125 34.570312 C 11.863281 34.492188 12.335938 33.9375 12.441406 33.808594 C 12.5 33.734375 12.636719 33.570312 12.902344 33.230469 C 12.636719 3.429688 12.5 3.265625 12.441406 3.191406 C 12.335938 3.0625 11.863281 2.507812 11.125 2.429688 C 10.476562 2.355469 9.671875 2.265625 9.390625 2.242188 C 9.320312 2.238281 9.234375 2.242188 9.15625 2.242188 Z"/>
  </g></g><text x="398.1220415333725" y="203.93174715132912" fill="#0080ff" font-size="7">UAL2712</text><polyline points="369.049973194542,428.82403494341713 257.57276817613865,428.80841950563354 330.27529255064104,428.8481222703633 291.50060514860274,428.84072289588653 402.97779316573997,428.77712958566906 213.95131207973805,428.7314640036751" stroke="#888" stroke-width="0.5" fill="none" opacity="0.5"/><g transform="translate(369.049973194542,428.82403494341713) rotate(179.22000000000003)"><g transform="scale(0.8)">
    <path stroke="#ffffff" stroke-width="2" fill="#ffff00" 
          d="M 9.15625 2.242188 C 8.921875 2.253906 8.652344 2.324219 8.417969 2.589844 C 8.101562 2.941406 8.125 3.441406 8.253906 3.792969 C 8.335938 4.007812 8.664062 4.765625 9.132812 5.921875 C 9.605469 7.074219 10.199219 8.570312 10.800781 10.035156 C 11.789062 12.453125 12.453125 14.042969 12.765625 14.800781 L 4.902344 14.800781 C 4.613281 14.246094 3.261719 11.636719 2.984375 11.101562 C 2.824219 10.792969 2.539062 10.574219 2.265625 10.476562 C 1.996094 10.378906 1.742188 10.367188 1.503906 10.359375 L 0.972656 10.359375 C 0.925781 10.359375 0.664062 10.328125 0.371094 10.546875 C 0.0742188 10.761719 0 11.164062 0.0234375 11.421875 C 0.0390625 11.613281 0.0507812 11.6875 0.09375 11.910156 C 0.136719 12.132812 0.207031 12.421875 0.277344 12.765625 C 0.417969 13.453125 0.582031 14.34375 0.761719 15.214844 C 1.113281 16.890625 1.453125 18.394531 1.480469 18.523438 C 1.417969 18.816406 0.0820312 25.1875 0.0234375 25.484375 C -0.0390625 25.773438 0.0859375 26.230469 0.347656 26.433594 C 0.605469 26.632812 0.832031 26.640625 0.972656 26.640625 L 1.480469 26.640625 C 1.855469 26.636719 2.085938 26.664062 2.429688 26.5 C 2.597656 26.421875 2.761719 26.273438 2.84375 26.15625 C 2.925781 26.035156 2.953125 25.960938 2.984375 25.898438 C 3.261719 25.363281 4.613281 22.753906 4.902344 22.199219 L 12.765625 22.199219 C 12.453125 22.957031 11.789062 24.546875 10.800781 26.964844 C 10.199219 28.429688 9.605469 29.925781 9.132812 31.078125 C 8.664062 32.234375 8.335938 32.992188 8.253906 33.207031 C 8.125 33.558594 8.101562 34.058594 8.417969 34.410156 C 8.734375 34.761719 9.117188 34.78125 9.390625 34.757812 C 9.671875 34.734375 10.476562 34.644531 11.125 34.570312 C 11.863281 34.492188 12.335938 33.9375 12.441406 33.808594 C 12.5 33.734375 12.636719 33.570312 12.902344 33.230469 C 12.636719 3.429688 12.5 3.265625 12.441406 3.191406 C 12.335938 3.0625 11.863281 2.507812 11.125 2.429688 C 10.476562 2.355469 9.671875 2.265625 9.390625 2.242188 C 9.320312 2.238281 9.234375 2.242188 9.15625 2.242188 Z"/>
  </g></g><text x="379.049973194542" y="423.82403494341713" fill="#ffff00" font-size="7">JRT60</text><polyline points="325.4304774432776,446.67609619090865 286.64135547938963,446.6647595231119 359.37095710531423,446.6601835244152" stroke="#888" stroke-width="0.5" fill="none" opacity="0.5"/><g transform="translate(325.4304774432776,446.67609619090865) rotate(179.24)"><g transform="scale(0.8)">
    <path stroke="#ffffff" stroke-width="2" fill="#0080ff" 
          d="M 9.15625 2.242188 C 8.921875 2.253906 8.652344 2.324219 8.417969 2.589844 C 8.101562 2.941406 8.125 3.441406 8.253906 3.792969 C 8.335938 4.007812 8.664062 4.765625 9.132812 5.921875 C 9.605469 7.074219 10.199219 8.570312 10.800781 10.035156 C 11.789062 12.453125 12.453125 14.042969 12.765625 14.800781 L 4.902344 14.800781 C 4.613281 14.246094 3.261719 11.636719 2.984375 11.101562 C 2.824219 10.792969 2.539062 10.574219 2.265625 10.476562 C 1.996094 10.378906 1.742188 10.367188 1.503906 10.359375 L 0.972656 10.359375 C 0.925781 10.359375 0.664062 10.328125 0.371094 10.546875 C 0.0742188 10.761719 0 11.164062 0.0234375 11.421875 C 0.0390625 11.613281 0.0507812 11.6875 0.09375 11.910156 C 0.136719 12.132812 0.207031 12.421875 0.277344 12.765625 C 0.417969 13.453125 0.582031 14.34375 0.761719 15.214844 C 1.113281 16.890625 1.453125 18.394531 1.480469 18.523438 C 1.417969 18.816406 0.0820312 25.1875 0.0234375 25.484375 C -0.0390625 25.773438 0.0859375 26.230469 0.347656 26.433594 C 0.605469 26.632812 0.832031 26.640625 0.972656 26.640625 L 1.480469 26.640625 C 1.855469 26.636719 2.085938 26.664062 2.429688 26.5 C 2.597656 26.421875 2.761719 26.273438 2.84375 26.15625 C 2.925781 26.035156 2.953125 25.960938 2.984375 25.898438 C 3.261719 25.363281 4.613281 22.753906 4.902344 22.199219 L 12.765625 22.199219 C 12.453125 22.957031 11.789062 24.546875 10.800781 26.964844 C 10.199219 28.429688 9.605469 29.925781 9.132812 31.078125 C 8.664062 32.234375 8.335938 32.992188 8.253906 33.207031 C 8.125 33.558594 8.101562 34.058594 8.417969 34.410156 C 8.734375 34.761719 9.117188 34.78125 9.390625 34.757812 C 9.671875 34.734375 10.476562 34.644531 11.125 34.570312 C 11.863281 34.492188 12.335938 33.9375 12.441406 33.808594 C 12.5 33.734375 12.636719 33.570312 12.902344 33.230469 C 13.167969 32.890625 13.527344 32.425781 13.96875 31.867188 C 14.847656 30.742188 16.027344 29.269531 17.183594 27.796875 C 19.382812 24.984375 21.375 22.453125 21.574219 22.199219 L 32.375 22.199219 C 33.96875 22.199219 35.148438 21.539062 35.890625 20.765625 C 36.261719 20.378906 36.539062 19.96875 36.722656 19.585938 C 36.90625 19.207031 37 18.871094 37 18.5 C 37 18.128906 36.882812 17.792969 36.699219 17.414062 C 36.515625 17.03125 36.261719 16.621094 35.890625 16.234375 C 35.144531 15.460938 33.9375 14.800781 32.351562 14.800781 L 21.574219 14.800781 C 21.375 14.546875 19.382812 12.015625 17.183594 9.203125 C 16.027344 7.730469 14.847656 6.257812 13.96875 5.132812 C 13.527344 4.574219 13.167969 4.109375 12.902344 3.769531 C 12.636719 3.429688 12.5 3.265625 12.441406 3.191406 C 12.335938 3.0625 11.863281 2.507812 11.125 2.429688 C 10.476562 2.355469 9.671875 2.265625 9.390625 2.242188 C 9.320312 2.238281 9.234375 2.242188 9.15625 2.242188 Z"/>
  </g></g><text x="335.4304774432776" y="441.67609619090865" fill="#0080ff" font-size="7">FDX978</text><polyline points="189.7819136769014,404.90195287964093 160.7946779087626,381.0442423615282 136.69887753319543,351.24535573283475 209.1044884097903,428.7204534891582" stroke="#888" stroke-width="0.5" fill="none" opacity="0.5"/><g transform="translate(189.7819136769014,404.90195287964093) rotate(225.26999999999998)"><g transform="scale(0.8)">
    <path stroke="#ffffff" stroke-width="2" fill="#0080ff" 
          d="M 9.15625 2.242188 C 8.921875 2.253906 8.652344 2.324219 8.417969 2.589844 C 8.101562 2.941406 8.125 3.441406 8.253906 3.792969 C 8.335938 4.007812 8.664062 4.765625 9.132812 5.921875 C 9.605469 7.074219 10.199219 8.570312 10.800781 10.035156 C 11.789062 12.453125 12.453125 14.042969 12.765625 14.800781 L 4.902344 14.800781 C 4.613281 14.246094 3.261719 11.636719 2.984375 11.101562 C 2.824219 10.792969 2.539062 10.574219 2.265625 10.476562 C 1.996094 10.378906 1.742188 10.367188 1.503906 10.359375 L 0.972656 10.359375 C 0.925781 10.359375 0.664062 10.328125 0.371094 10.546875 C 0.0742188 10.761719 0 11.164062 0.0234375 11.421875 C 0.0390625 11.613281 0.0507812 11.6875 0.09375 11.910156 C 0.136719 12.132812 0.207031 12.421875 0.277344 12.765625 C 0.417969 13.453125 0.582031 14.34375 0.761719 15.214844 C 1.113281 16.890625 1.453125 18.394531 1.480469 18.523438 C 1.417969 18.816406 0.0820312 25.1875 0.0234375 25.484375 C -0.0390625 25.773438 0.0859375 26.230469 0.347656 26.433594 C 0.605469 26.632812 0.832031 26.640625 0.972656 26.640625 L 1.480469 26.640625 C 1.855469 26.636719 2.085938 26.664062 2.429688 26.5 C 2.597656 26.421875 2.761719 26.273438 2.84375 26.15625 C 2.925781 26.035156 2.953125 25.960938 2.984375 25.898438 C 3.261719 25.363281 4.613281 22.753906 4.902344 22.199219 L 12.765625 22.199219 C 12.453125 22.957031 11.789062 24.546875 10.800781 26.964844 C 10.199219 28.429688 9.605469 29.925781 9.132812 31.078125 C 8.664062 32.234375 8.335938 32.992188 8.253906 33.207031 C 8.125 33.558594 8.101562 34.058594 8.417969 34.410156 C 8.734375 34.761719 9.117188 34.78125 9.390625 34.757812 C 9.671875 34.734375 10.476562 34.644531 11.125 34.570312 C 11.863281 34.492188 12.335938 33.9375 12.441406 33.808594 C 12.5 33.734375 12.636719 33.570312 12.902344 33.230469 C 12.636719 3.429688 12.5 3.265625 12.441406 3.191406 C 12.335938 3.0625 11.863281 2.507812 11.125 2.429688 C 10.476562 2.355469 9.671875 2.265625 9.390625 2.242188 C 9.320312 2.238281 9.234375 2.242188 9.15625 2.242188 Z"/>
  </g></g><text x="199.7819136769014" y="399.90195287964093" fill="#0080ff" font-size="7">SWA3053</text>
<rect x="10" y="10" width="200" height="120" fill="#000000" fill-opacity="0.8" stroke="#ffffff" stroke-width="1"/>
<text x="15" y="25" fill="#ffffff" font-size="11" font-weight="bold">Aircraft Traffic - Liberty Hill</text>

  <circle cx="20" cy="35" r="3" fill="#0080ff"/>
  <text x="30" y="39" fill="#ffffff" font-size="9">Commercial Aviation</text>

  <circle cx="20" cy="47" r="3" fill="#ffff00"/>
  <text x="30" y="51" fill="#ffffff" font-size="9">General Aviation</text>

  <circle cx="20" cy="59" r="3" fill="#ff0000"/>
  <text x="30" y="63" fill="#ffffff" font-size="9">Medical/Emergency</text>

  <circle cx="20" cy="71" r="3" fill="#00ff00"/>
  <text x="30" y="75" fill="#ffffff" font-size="9">Military/Government</text>

  <circle cx="20" cy="83" r="3" fill="#ffa500"/>
  <text x="30" y="87" fill="#ffffff" font-size="9">Balloons/Research</text>

<text x="15" y="105" fill="#ffffff" font-size="9">Aircraft: 4 | Map Coverage: ~37×28mi</text>
<text x="15" y="115" fill="#ffffff" font-size="8">Updated: 04:33:51 PM CT</text>
</svg>
