
<svg width="640" height="480" xmlns="http://www.w3.org/2000/svg">
  <image href="https://observatory.fallingdata.zone/maps/background-map.png" x="0" y="0" width="640" height="480" preserveAspectRatio="xMidYMid slice"/>
  <circle cx="320" cy="240" r="43" fill="none" stroke="#003366" stroke-width="1"/><circle cx="320" cy="240" r="86" fill="none" stroke="#003366" stroke-width="1"/><circle cx="320" cy="240" r="129" fill="none" stroke="#003366" stroke-width="1"/><circle cx="320" cy="240" r="172" fill="none" stroke="#003366" stroke-width="1"/>
  <text x="368" y="235" fill="#ffffff" font-size="9">5mi</text><text x="411" y="235" fill="#ffffff" font-size="9">10mi</text><text x="454" y="235" fill="#ffffff" font-size="9">15mi</text><text x="497" y="235" fill="#ffffff" font-size="9">20mi</text>
  <text x="320" y="15" fill="#fff" font-size="12" text-anchor="middle">N</text>
  <text x="320" y="475" fill="#fff" font-size="12" text-anchor="middle">S</text>
  <text x="10" y="243" fill="#fff" font-size="12" text-anchor="middle">W</text>
  <text x="630" y="243" fill="#fff" font-size="12" text-anchor="middle">E</text>
<polyline points="398.0241878103782,363.419021092541 412.5332768285484,357.4506389360042 422.21247575469386,357.4308518996824 422.21247575469386,357.4308518996824 388.3437745849393,363.433891512714 407.6936759095991,357.45979486455315" stroke="#888" stroke-width="0.5" fill="none" opacity="0.5"/><g transform="translate(398.0241878103782,363.419021092541) rotate(-4.569999999999993)"><g transform="scale(0.8)">
    <path stroke="#ffffff" stroke-width="2" fill="#ffff00" 
          d="M 9.15625 2.242188 C 8.921875 2.253906 8.652344 2.324219 8.417969 2.589844 C 8.101562 2.941406 8.125 3.441406 8.253906 3.792969 C 8.335938 4.007812 8.664062 4.765625 9.132812 5.921875 C 9.605469 7.074219 10.199219 8.570312 10.800781 10.035156 C 11.789062 12.453125 12.453125 14.042969 12.765625 14.800781 L 4.902344 14.800781 C 4.613281 14.246094 3.261719 11.636719 2.984375 11.101562 C 2.824219 10.792969 2.539062 10.574219 2.265625 10.476562 C 1.996094 10.378906 1.742188 10.367188 1.503906 10.359375 L 0.972656 10.359375 C 0.925781 10.359375 0.664062 10.328125 0.371094 10.546875 C 0.0742188 10.761719 0 11.164062 0.0234375 11.421875 C 0.0390625 11.613281 0.0507812 11.6875 0.09375 11.910156 C 0.136719 12.132812 0.207031 12.421875 0.277344 12.765625 C 0.417969 13.453125 0.582031 14.34375 0.761719 15.214844 C 1.113281 16.890625 1.453125 18.394531 1.480469 18.523438 C 1.417969 18.816406 0.0820312 25.1875 0.0234375 25.484375 C -0.0390625 25.773438 0.0859375 26.230469 0.347656 26.433594 C 0.605469 26.632812 0.832031 26.640625 0.972656 26.640625 L 1.480469 26.640625 C 1.855469 26.636719 2.085938 26.664062 2.429688 26.5 C 2.597656 26.421875 2.761719 26.273438 2.84375 26.15625 C 2.925781 26.035156 2.953125 25.960938 2.984375 25.898438 C 3.261719 25.363281 4.613281 22.753906 4.902344 22.199219 L 12.765625 22.199219 C 12.453125 22.957031 11.789062 24.546875 10.800781 26.964844 C 10.199219 28.429688 9.605469 29.925781 9.132812 31.078125 C 8.664062 32.234375 8.335938 32.992188 8.253906 33.207031 C 8.125 33.558594 8.101562 34.058594 8.417969 34.410156 C 8.734375 34.761719 9.117188 34.78125 9.390625 34.757812 C 9.671875 34.734375 10.476562 34.644531 11.125 34.570312 C 11.863281 34.492188 12.335938 33.9375 12.441406 33.808594 C 12.5 33.734375 12.636719 33.570312 12.902344 33.230469 C 12.636719 3.429688 12.5 3.265625 12.441406 3.191406 C 12.335938 3.0625 11.863281 2.507812 11.125 2.429688 C 10.476562 2.355469 9.671875 2.265625 9.390625 2.242188 C 9.320312 2.238281 9.234375 2.242188 9.15625 2.242188 Z"/>
  </g></g><text x="408.0241878103782" y="358.419021092541" fill="#ffff00" font-size="7">CXK118</text><polyline points="170.51587822455886,369.1908358851415 204.4014515088694,369.285088224869 233.4462757032096,369.3466969426014 267.3253879117356,375.33858936767587 291.5289241129996,381.3015872845393 320.581114682926,387.2524780838894 354.48375630823887,393.1824068513198 378.7071658765841,399.1011394879713 407.7810014456121,404.9989055023558 436.86202696797903,410.87895866243514" stroke="#888" stroke-width="0.5" fill="none" opacity="0.5"/><g transform="translate(170.51587822455886,369.1908358851415) rotate(179.69)"><g transform="scale(0.8)">
    <path stroke="#ffffff" stroke-width="2" fill="#ffff00" 
          d="M 9.15625 2.242188 C 8.921875 2.253906 8.652344 2.324219 8.417969 2.589844 C 8.101562 2.941406 8.125 3.441406 8.253906 3.792969 C 8.335938 4.007812 8.664062 4.765625 9.132812 5.921875 C 9.605469 7.074219 10.199219 8.570312 10.800781 10.035156 C 11.789062 12.453125 12.453125 14.042969 12.765625 14.800781 L 4.902344 14.800781 C 4.613281 14.246094 3.261719 11.636719 2.984375 11.101562 C 2.824219 10.792969 2.539062 10.574219 2.265625 10.476562 C 1.996094 10.378906 1.742188 10.367188 1.503906 10.359375 L 0.972656 10.359375 C 0.925781 10.359375 0.664062 10.328125 0.371094 10.546875 C 0.0742188 10.761719 0 11.164062 0.0234375 11.421875 C 0.0390625 11.613281 0.0507812 11.6875 0.09375 11.910156 C 0.136719 12.132812 0.207031 12.421875 0.277344 12.765625 C 0.417969 13.453125 0.582031 14.34375 0.761719 15.214844 C 1.113281 16.890625 1.453125 18.394531 1.480469 18.523438 C 1.417969 18.816406 0.0820312 25.1875 0.0234375 25.484375 C -0.0390625 25.773438 0.0859375 26.230469 0.347656 26.433594 C 0.605469 26.632812 0.832031 26.640625 0.972656 26.640625 L 1.480469 26.640625 C 1.855469 26.636719 2.085938 26.664062 2.429688 26.5 C 2.597656 26.421875 2.761719 26.273438 2.84375 26.15625 C 2.925781 26.035156 2.953125 25.960938 2.984375 25.898438 C 3.261719 25.363281 4.613281 22.753906 4.902344 22.199219 L 12.765625 22.199219 C 12.453125 22.957031 11.789062 24.546875 10.800781 26.964844 C 10.199219 28.429688 9.605469 29.925781 9.132812 31.078125 C 8.664062 32.234375 8.335938 32.992188 8.253906 33.207031 C 8.125 33.558594 8.101562 34.058594 8.417969 34.410156 C 8.734375 34.761719 9.117188 34.78125 9.390625 34.757812 C 9.671875 34.734375 10.476562 34.644531 11.125 34.570312 C 11.863281 34.492188 12.335938 33.9375 12.441406 33.808594 C 12.5 33.734375 12.636719 33.570312 12.902344 33.230469 C 12.636719 3.429688 12.5 3.265625 12.441406 3.191406 C 12.335938 3.0625 11.863281 2.507812 11.125 2.429688 C 10.476562 2.355469 9.671875 2.265625 9.390625 2.242188 C 9.320312 2.238281 9.234375 2.242188 9.15625 2.242188 Z"/>
  </g></g><text x="180.51587822455886" y="364.1908358851415" fill="#ffff00" font-size="7">SKW6517</text><polyline points="436.0745887505873,89.9901141279212 402.3463794245993,66.29139215088699 465.021916365375,113.67978895874161 378.28190312015107,54.442477788710505 349.4183194686727,36.64214837055826 498.8154751529682,137.3337841969045" stroke="#888" stroke-width="0.5" fill="none" opacity="0.5"/><g transform="translate(436.0745887505873,89.9901141279212) rotate(215.76)"><g transform="scale(0.8)">
    <path stroke="#ffffff" stroke-width="2" fill="#0080ff" 
          d="M 9.15625 2.242188 C 8.921875 2.253906 8.652344 2.324219 8.417969 2.589844 C 8.101562 2.941406 8.125 3.441406 8.253906 3.792969 C 8.335938 4.007812 8.664062 4.765625 9.132812 5.921875 C 9.605469 7.074219 10.199219 8.570312 10.800781 10.035156 C 11.789062 12.453125 12.453125 14.042969 12.765625 14.800781 L 4.902344 14.800781 C 4.613281 14.246094 3.261719 11.636719 2.984375 11.101562 C 2.824219 10.792969 2.539062 10.574219 2.265625 10.476562 C 1.996094 10.378906 1.742188 10.367188 1.503906 10.359375 L 0.972656 10.359375 C 0.925781 10.359375 0.664062 10.328125 0.371094 10.546875 C 0.0742188 10.761719 0 11.164062 0.0234375 11.421875 C 0.0390625 11.613281 0.0507812 11.6875 0.09375 11.910156 C 0.136719 12.132812 0.207031 12.421875 0.277344 12.765625 C 0.417969 13.453125 0.582031 14.34375 0.761719 15.214844 C 1.113281 16.890625 1.453125 18.394531 1.480469 18.523438 C 1.417969 18.816406 0.0820312 25.1875 0.0234375 25.484375 C -0.0390625 25.773438 0.0859375 26.230469 0.347656 26.433594 C 0.605469 26.632812 0.832031 26.640625 0.972656 26.640625 L 1.480469 26.640625 C 1.855469 26.636719 2.085938 26.664062 2.429688 26.5 C 2.597656 26.421875 2.761719 26.273438 2.84375 26.15625 C 2.925781 26.035156 2.953125 25.960938 2.984375 25.898438 C 3.261719 25.363281 4.613281 22.753906 4.902344 22.199219 L 12.765625 22.199219 C 12.453125 22.957031 11.789062 24.546875 10.800781 26.964844 C 10.199219 28.429688 9.605469 29.925781 9.132812 31.078125 C 8.664062 32.234375 8.335938 32.992188 8.253906 33.207031 C 8.125 33.558594 8.101562 34.058594 8.417969 34.410156 C 8.734375 34.761719 9.117188 34.78125 9.390625 34.757812 C 9.671875 34.734375 10.476562 34.644531 11.125 34.570312 C 11.863281 34.492188 12.335938 33.9375 12.441406 33.808594 C 12.5 33.734375 12.636719 33.570312 12.902344 33.230469 C 13.167969 32.890625 13.527344 32.425781 13.96875 31.867188 C 14.847656 30.742188 16.027344 29.269531 17.183594 27.796875 C 19.382812 24.984375 21.375 22.453125 21.574219 22.199219 L 32.375 22.199219 C 33.96875 22.199219 35.148438 21.539062 35.890625 20.765625 C 36.261719 20.378906 36.539062 19.96875 36.722656 19.585938 C 36.90625 19.207031 37 18.871094 37 18.5 C 37 18.128906 36.882812 17.792969 36.699219 17.414062 C 36.515625 17.03125 36.261719 16.621094 35.890625 16.234375 C 35.144531 15.460938 33.9375 14.800781 32.351562 14.800781 L 21.574219 14.800781 C 21.375 14.546875 19.382812 12.015625 17.183594 9.203125 C 16.027344 7.730469 14.847656 6.257812 13.96875 5.132812 C 13.527344 4.574219 13.167969 4.109375 12.902344 3.769531 C 12.636719 3.429688 12.5 3.265625 12.441406 3.191406 C 12.335938 3.0625 11.863281 2.507812 11.125 2.429688 C 10.476562 2.355469 9.671875 2.265625 9.390625 2.242188 C 9.320312 2.238281 9.234375 2.242188 9.15625 2.242188 Z"/>
  </g></g><text x="446.0745887505873" y="84.9901141279212" fill="#0080ff" font-size="7">DAL736</text><polyline points="325.42913023889514,434.7913115824585 281.80219479872517,434.7763449185327 359.36118987239564,434.77540027672865" stroke="#888" stroke-width="0.5" fill="none" opacity="0.5"/><g transform="translate(325.42913023889514,434.7913115824585) rotate(178.49)"><g transform="scale(0.8)">
    <path stroke="#ffffff" stroke-width="2" fill="#0080ff" 
          d="M 9.15625 2.242188 C 8.921875 2.253906 8.652344 2.324219 8.417969 2.589844 C 8.101562 2.941406 8.125 3.441406 8.253906 3.792969 C 8.335938 4.007812 8.664062 4.765625 9.132812 5.921875 C 9.605469 7.074219 10.199219 8.570312 10.800781 10.035156 C 11.789062 12.453125 12.453125 14.042969 12.765625 14.800781 L 4.902344 14.800781 C 4.613281 14.246094 3.261719 11.636719 2.984375 11.101562 C 2.824219 10.792969 2.539062 10.574219 2.265625 10.476562 C 1.996094 10.378906 1.742188 10.367188 1.503906 10.359375 L 0.972656 10.359375 C 0.925781 10.359375 0.664062 10.328125 0.371094 10.546875 C 0.0742188 10.761719 0 11.164062 0.0234375 11.421875 C 0.0390625 11.613281 0.0507812 11.6875 0.09375 11.910156 C 0.136719 12.132812 0.207031 12.421875 0.277344 12.765625 C 0.417969 13.453125 0.582031 14.34375 0.761719 15.214844 C 1.113281 16.890625 1.453125 18.394531 1.480469 18.523438 C 1.417969 18.816406 0.0820312 25.1875 0.0234375 25.484375 C -0.0390625 25.773438 0.0859375 26.230469 0.347656 26.433594 C 0.605469 26.632812 0.832031 26.640625 0.972656 26.640625 L 1.480469 26.640625 C 1.855469 26.636719 2.085938 26.664062 2.429688 26.5 C 2.597656 26.421875 2.761719 26.273438 2.84375 26.15625 C 2.925781 26.035156 2.953125 25.960938 2.984375 25.898438 C 3.261719 25.363281 4.613281 22.753906 4.902344 22.199219 L 12.765625 22.199219 C 12.453125 22.957031 11.789062 24.546875 10.800781 26.964844 C 10.199219 28.429688 9.605469 29.925781 9.132812 31.078125 C 8.664062 32.234375 8.335938 32.992188 8.253906 33.207031 C 8.125 33.558594 8.101562 34.058594 8.417969 34.410156 C 8.734375 34.761719 9.117188 34.78125 9.390625 34.757812 C 9.671875 34.734375 10.476562 34.644531 11.125 34.570312 C 11.863281 34.492188 12.335938 33.9375 12.441406 33.808594 C 12.5 33.734375 12.636719 33.570312 12.902344 33.230469 C 13.167969 32.890625 13.527344 32.425781 13.96875 31.867188 C 14.847656 30.742188 16.027344 29.269531 17.183594 27.796875 C 19.382812 24.984375 21.375 22.453125 21.574219 22.199219 L 32.375 22.199219 C 33.96875 22.199219 35.148438 21.539062 35.890625 20.765625 C 36.261719 20.378906 36.539062 19.96875 36.722656 19.585938 C 36.90625 19.207031 37 18.871094 37 18.5 C 37 18.128906 36.882812 17.792969 36.699219 17.414062 C 36.515625 17.03125 36.261719 16.621094 35.890625 16.234375 C 35.144531 15.460938 33.9375 14.800781 32.351562 14.800781 L 21.574219 14.800781 C 21.375 14.546875 19.382812 12.015625 17.183594 9.203125 C 16.027344 7.730469 14.847656 6.257812 13.96875 5.132812 C 13.527344 4.574219 13.167969 4.109375 12.902344 3.769531 C 12.636719 3.429688 12.5 3.265625 12.441406 3.191406 C 12.335938 3.0625 11.863281 2.507812 11.125 2.429688 C 10.476562 2.355469 9.671875 2.265625 9.390625 2.242188 C 9.320312 2.238281 9.234375 2.242188 9.15625 2.242188 Z"/>
  </g></g><text x="335.42913023889514" y="429.7913115824585" fill="#0080ff" font-size="7">AAL1044</text>
<rect x="10" y="10" width="200" height="120" fill="#000000" fill-opacity="0.8" stroke="#ffffff" stroke-width="1"/>
<text x="15" y="25" fill="#ffffff" font-size="11" font-weight="bold">Aircraft Traffic - Liberty Hill</text>

  <circle cx="20" cy="35" r="3" fill="#0080ff"/>
  <text x="30" y="39" fill="#ffffff" font-size="9">Commercial Aviation</text>

  <circle cx="20" cy="47" r="3" fill="#ffff00"/>
  <text x="30" y="51" fill="#ffffff" font-size="9">General Aviation</text>

  <circle cx="20" cy="59" r="3" fill="#ff0000"/>
  <text x="30" y="63" fill="#ffffff" font-size="9">Medical/Emergency</text>

  <circle cx="20" cy="71" r="3" fill="#00ff00"/>
  <text x="30" y="75" fill="#ffffff" font-size="9">Military/Government</text>

  <circle cx="20" cy="83" r="3" fill="#ffa500"/>
  <text x="30" y="87" fill="#ffffff" font-size="9">Balloons/Research</text>

<text x="15" y="105" fill="#ffffff" font-size="9">Aircraft: 4 | Map Coverage: ~37×28mi</text>
<text x="15" y="115" fill="#ffffff" font-size="8">Updated: 03:25:00 PM CT</text>
</svg>
