
<svg width="640" height="480" xmlns="http://www.w3.org/2000/svg">
  <image href="http://192.168.1.65:8083/background-map.png" x="0" y="0" width="640" height="480" preserveAspectRatio="xMidYMid slice"/>
  <circle cx="320" cy="240" r="43" fill="none" stroke="#003366" stroke-width="1"/><circle cx="320" cy="240" r="86" fill="none" stroke="#003366" stroke-width="1"/><circle cx="320" cy="240" r="129" fill="none" stroke="#003366" stroke-width="1"/><circle cx="320" cy="240" r="172" fill="none" stroke="#003366" stroke-width="1"/>
  <text x="368" y="235" fill="#ffffff" font-size="9">5mi</text><text x="411" y="235" fill="#ffffff" font-size="9">10mi</text><text x="454" y="235" fill="#ffffff" font-size="9">15mi</text><text x="497" y="235" fill="#ffffff" font-size="9">20mi</text>
  <text x="320" y="15" fill="#fff" font-size="12" text-anchor="middle">N</text>
  <text x="320" y="475" fill="#fff" font-size="12" text-anchor="middle">S</text>
  <text x="10" y="243" fill="#fff" font-size="12" text-anchor="middle">W</text>
  <text x="630" y="243" fill="#fff" font-size="12" text-anchor="middle">E</text>
<polyline points="224.05274090334714,226.71081423967465 257.83696244545996,226.76714113406723 286.79489239775927,226.79626251425944 310.9253733858541,232.74941320367714 335.06001848956026,232.74789025034715 359.19465970650646,232.73408547713245 383.3372259242,238.65038932168437 407.47486465642237,238.61201918697685 426.7849596340788,238.5724797601291" stroke="#888" stroke-width="0.5" fill="none" opacity="0.5"/><g transform="translate(224.05274090334714,226.71081423967465) rotate(4.400000000000006)"><g transform="scale(0.8)">
    <path stroke="#ffffff" stroke-width="2" fill="#ffff00" 
          d="M 9.15625 2.242188 C 8.921875 2.253906 8.652344 2.324219 8.417969 2.589844 C 8.101562 2.941406 8.125 3.441406 8.253906 3.792969 C 8.335938 4.007812 8.664062 4.765625 9.132812 5.921875 C 9.605469 7.074219 10.199219 8.570312 10.800781 10.035156 C 11.789062 12.453125 12.453125 14.042969 12.765625 14.800781 L 4.902344 14.800781 C 4.613281 14.246094 3.261719 11.636719 2.984375 11.101562 C 2.824219 10.792969 2.539062 10.574219 2.265625 10.476562 C 1.996094 10.378906 1.742188 10.367188 1.503906 10.359375 L 0.972656 10.359375 C 0.925781 10.359375 0.664062 10.328125 0.371094 10.546875 C 0.0742188 10.761719 0 11.164062 0.0234375 11.421875 C 0.0390625 11.613281 0.0507812 11.6875 0.09375 11.910156 C 0.136719 12.132812 0.207031 12.421875 0.277344 12.765625 C 0.417969 13.453125 0.582031 14.34375 0.761719 15.214844 C 1.113281 16.890625 1.453125 18.394531 1.480469 18.523438 C 1.417969 18.816406 0.0820312 25.1875 0.0234375 25.484375 C -0.0390625 25.773438 0.0859375 26.230469 0.347656 26.433594 C 0.605469 26.632812 0.832031 26.640625 0.972656 26.640625 L 1.480469 26.640625 C 1.855469 26.636719 2.085938 26.664062 2.429688 26.5 C 2.597656 26.421875 2.761719 26.273438 2.84375 26.15625 C 2.925781 26.035156 2.953125 25.960938 2.984375 25.898438 C 3.261719 25.363281 4.613281 22.753906 4.902344 22.199219 L 12.765625 22.199219 C 12.453125 22.957031 11.789062 24.546875 10.800781 26.964844 C 10.199219 28.429688 9.605469 29.925781 9.132812 31.078125 C 8.664062 32.234375 8.335938 32.992188 8.253906 33.207031 C 8.125 33.558594 8.101562 34.058594 8.417969 34.410156 C 8.734375 34.761719 9.117188 34.78125 9.390625 34.757812 C 9.671875 34.734375 10.476562 34.644531 11.125 34.570312 C 11.863281 34.492188 12.335938 33.9375 12.441406 33.808594 C 12.5 33.734375 12.636719 33.570312 12.902344 33.230469 C 12.636719 3.429688 12.5 3.265625 12.441406 3.191406 C 12.335938 3.0625 11.863281 2.507812 11.125 2.429688 C 10.476562 2.355469 9.671875 2.265625 9.390625 2.242188 C 9.320312 2.238281 9.234375 2.242188 9.15625 2.242188 Z"/>
  </g></g><text x="234.05274090334714" y="221.71081423967465" fill="#ffff00" font-size="7">N9CA</text><polyline points="286.79489239775927,226.79626251425944 310.9208262899035,256.51898230776845 257.8447549631827,220.82475062270657 219.23905971395905,220.75841496133498 315.748046943611,280.28922962315687" stroke="#888" stroke-width="0.5" fill="none" opacity="0.5"/><g transform="translate(286.79489239775927,226.79626251425944) rotate(30.760000000000005)"><g transform="scale(0.8)">
    <path stroke="#ffffff" stroke-width="2" fill="#ffff00" 
          d="M 9.15625 2.242188 C 8.921875 2.253906 8.652344 2.324219 8.417969 2.589844 C 8.101562 2.941406 8.125 3.441406 8.253906 3.792969 C 8.335938 4.007812 8.664062 4.765625 9.132812 5.921875 C 9.605469 7.074219 10.199219 8.570312 10.800781 10.035156 C 11.789062 12.453125 12.453125 14.042969 12.765625 14.800781 L 4.902344 14.800781 C 4.613281 14.246094 3.261719 11.636719 2.984375 11.101562 C 2.824219 10.792969 2.539062 10.574219 2.265625 10.476562 C 1.996094 10.378906 1.742188 10.367188 1.503906 10.359375 L 0.972656 10.359375 C 0.925781 10.359375 0.664062 10.328125 0.371094 10.546875 C 0.0742188 10.761719 0 11.164062 0.0234375 11.421875 C 0.0390625 11.613281 0.0507812 11.6875 0.09375 11.910156 C 0.136719 12.132812 0.207031 12.421875 0.277344 12.765625 C 0.417969 13.453125 0.582031 14.34375 0.761719 15.214844 C 1.113281 16.890625 1.453125 18.394531 1.480469 18.523438 C 1.417969 18.816406 0.0820312 25.1875 0.0234375 25.484375 C -0.0390625 25.773438 0.0859375 26.230469 0.347656 26.433594 C 0.605469 26.632812 0.832031 26.640625 0.972656 26.640625 L 1.480469 26.640625 C 1.855469 26.636719 2.085938 26.664062 2.429688 26.5 C 2.597656 26.421875 2.761719 26.273438 2.84375 26.15625 C 2.925781 26.035156 2.953125 25.960938 2.984375 25.898438 C 3.261719 25.363281 4.613281 22.753906 4.902344 22.199219 L 12.765625 22.199219 C 12.453125 22.957031 11.789062 24.546875 10.800781 26.964844 C 10.199219 28.429688 9.605469 29.925781 9.132812 31.078125 C 8.664062 32.234375 8.335938 32.992188 8.253906 33.207031 C 8.125 33.558594 8.101562 34.058594 8.417969 34.410156 C 8.734375 34.761719 9.117188 34.78125 9.390625 34.757812 C 9.671875 34.734375 10.476562 34.644531 11.125 34.570312 C 11.863281 34.492188 12.335938 33.9375 12.441406 33.808594 C 12.5 33.734375 12.636719 33.570312 12.902344 33.230469 C 12.636719 3.429688 12.5 3.265625 12.441406 3.191406 C 12.335938 3.0625 11.863281 2.507812 11.125 2.429688 C 10.476562 2.355469 9.671875 2.265625 9.390625 2.242188 C 9.320312 2.238281 9.234375 2.242188 9.15625 2.242188 Z"/>
  </g></g><text x="296.79489239775927" y="221.79626251425944" fill="#ffff00" font-size="7">N244FL</text><polyline points="335.08829161956726,321.8837734343132 378.6268197547174,333.73484120016434 378.6268197547174,333.73484120016434" stroke="#888" stroke-width="0.5" fill="none" opacity="0.5"/><g transform="translate(335.08829161956726,321.8837734343132) rotate(5.579999999999998)"><g transform="scale(0.8)">
    <path stroke="#ffffff" stroke-width="2" fill="#ffff00" 
          d="M 9.15625 2.242188 C 8.921875 2.253906 8.652344 2.324219 8.417969 2.589844 C 8.101562 2.941406 8.125 3.441406 8.253906 3.792969 C 8.335938 4.007812 8.664062 4.765625 9.132812 5.921875 C 9.605469 7.074219 10.199219 8.570312 10.800781 10.035156 C 11.789062 12.453125 12.453125 14.042969 12.765625 14.800781 L 4.902344 14.800781 C 4.613281 14.246094 3.261719 11.636719 2.984375 11.101562 C 2.824219 10.792969 2.539062 10.574219 2.265625 10.476562 C 1.996094 10.378906 1.742188 10.367188 1.503906 10.359375 L 0.972656 10.359375 C 0.925781 10.359375 0.664062 10.328125 0.371094 10.546875 C 0.0742188 10.761719 0 11.164062 0.0234375 11.421875 C 0.0390625 11.613281 0.0507812 11.6875 0.09375 11.910156 C 0.136719 12.132812 0.207031 12.421875 0.277344 12.765625 C 0.417969 13.453125 0.582031 14.34375 0.761719 15.214844 C 1.113281 16.890625 1.453125 18.394531 1.480469 18.523438 C 1.417969 18.816406 0.0820312 25.1875 0.0234375 25.484375 C -0.0390625 25.773438 0.0859375 26.230469 0.347656 26.433594 C 0.605469 26.632812 0.832031 26.640625 0.972656 26.640625 L 1.480469 26.640625 C 1.855469 26.636719 2.085938 26.664062 2.429688 26.5 C 2.597656 26.421875 2.761719 26.273438 2.84375 26.15625 C 2.925781 26.035156 2.953125 25.960938 2.984375 25.898438 C 3.261719 25.363281 4.613281 22.753906 4.902344 22.199219 L 12.765625 22.199219 C 12.453125 22.957031 11.789062 24.546875 10.800781 26.964844 C 10.199219 28.429688 9.605469 29.925781 9.132812 31.078125 C 8.664062 32.234375 8.335938 32.992188 8.253906 33.207031 C 8.125 33.558594 8.101562 34.058594 8.417969 34.410156 C 8.734375 34.761719 9.117188 34.78125 9.390625 34.757812 C 9.671875 34.734375 10.476562 34.644531 11.125 34.570312 C 11.863281 34.492188 12.335938 33.9375 12.441406 33.808594 C 12.5 33.734375 12.636719 33.570312 12.902344 33.230469 C 12.636719 3.429688 12.5 3.265625 12.441406 3.191406 C 12.335938 3.0625 11.863281 2.507812 11.125 2.429688 C 10.476562 2.355469 9.671875 2.265625 9.390625 2.242188 C 9.320312 2.238281 9.234375 2.242188 9.15625 2.242188 Z"/>
  </g></g><text x="345.08829161956726" y="316.8837734343132" fill="#ffff00" font-size="7">N992DC</text><polyline points="267.3844288010201,321.85706988776695 214.30751119015537,268.28700944591037 248.09437861614435,286.17740318499875" stroke="#888" stroke-width="0.5" fill="none" opacity="0.5"/><g transform="translate(267.3844288010201,321.85706988776695) rotate(63.150000000000006)"><g transform="scale(0.8)">
    <path stroke="#ffffff" stroke-width="2" fill="#ffff00" 
          d="M 9.15625 2.242188 C 8.921875 2.253906 8.652344 2.324219 8.417969 2.589844 C 8.101562 2.941406 8.125 3.441406 8.253906 3.792969 C 8.335938 4.007812 8.664062 4.765625 9.132812 5.921875 C 9.605469 7.074219 10.199219 8.570312 10.800781 10.035156 C 11.789062 12.453125 12.453125 14.042969 12.765625 14.800781 L 4.902344 14.800781 C 4.613281 14.246094 3.261719 11.636719 2.984375 11.101562 C 2.824219 10.792969 2.539062 10.574219 2.265625 10.476562 C 1.996094 10.378906 1.742188 10.367188 1.503906 10.359375 L 0.972656 10.359375 C 0.925781 10.359375 0.664062 10.328125 0.371094 10.546875 C 0.0742188 10.761719 0 11.164062 0.0234375 11.421875 C 0.0390625 11.613281 0.0507812 11.6875 0.09375 11.910156 C 0.136719 12.132812 0.207031 12.421875 0.277344 12.765625 C 0.417969 13.453125 0.582031 14.34375 0.761719 15.214844 C 1.113281 16.890625 1.453125 18.394531 1.480469 18.523438 C 1.417969 18.816406 0.0820312 25.1875 0.0234375 25.484375 C -0.0390625 25.773438 0.0859375 26.230469 0.347656 26.433594 C 0.605469 26.632812 0.832031 26.640625 0.972656 26.640625 L 1.480469 26.640625 C 1.855469 26.636719 2.085938 26.664062 2.429688 26.5 C 2.597656 26.421875 2.761719 26.273438 2.84375 26.15625 C 2.925781 26.035156 2.953125 25.960938 2.984375 25.898438 C 3.261719 25.363281 4.613281 22.753906 4.902344 22.199219 L 12.765625 22.199219 C 12.453125 22.957031 11.789062 24.546875 10.800781 26.964844 C 10.199219 28.429688 9.605469 29.925781 9.132812 31.078125 C 8.664062 32.234375 8.335938 32.992188 8.253906 33.207031 C 8.125 33.558594 8.101562 34.058594 8.417969 34.410156 C 8.734375 34.761719 9.117188 34.78125 9.390625 34.757812 C 9.671875 34.734375 10.476562 34.644531 11.125 34.570312 C 11.863281 34.492188 12.335938 33.9375 12.441406 33.808594 C 12.5 33.734375 12.636719 33.570312 12.902344 33.230469 C 12.636719 3.429688 12.5 3.265625 12.441406 3.191406 C 12.335938 3.0625 11.863281 2.507812 11.125 2.429688 C 10.476562 2.355469 9.671875 2.265625 9.390625 2.242188 C 9.320312 2.238281 9.234375 2.242188 9.15625 2.242188 Z"/>
  </g></g><text x="277.3844288010201" y="316.85706988776695" fill="#ffff00" font-size="7">N920TC</text><polyline points="257.72799978366356,309.9606084681271 257.72799978366356,309.9606084681271" stroke="#888" stroke-width="0.5" fill="none" opacity="0.5"/><g transform="translate(257.72799978366356,309.9606084681271) rotate(183.29000000000002)"><g transform="scale(0.8)">
    <path stroke="#ffffff" stroke-width="2" fill="#ffff00" 
          d="M 9.15625 2.242188 C 8.921875 2.253906 8.652344 2.324219 8.417969 2.589844 C 8.101562 2.941406 8.125 3.441406 8.253906 3.792969 C 8.335938 4.007812 8.664062 4.765625 9.132812 5.921875 C 9.605469 7.074219 10.199219 8.570312 10.800781 10.035156 C 11.789062 12.453125 12.453125 14.042969 12.765625 14.800781 L 4.902344 14.800781 C 4.613281 14.246094 3.261719 11.636719 2.984375 11.101562 C 2.824219 10.792969 2.539062 10.574219 2.265625 10.476562 C 1.996094 10.378906 1.742188 10.367188 1.503906 10.359375 L 0.972656 10.359375 C 0.925781 10.359375 0.664062 10.328125 0.371094 10.546875 C 0.0742188 10.761719 0 11.164062 0.0234375 11.421875 C 0.0390625 11.613281 0.0507812 11.6875 0.09375 11.910156 C 0.136719 12.132812 0.207031 12.421875 0.277344 12.765625 C 0.417969 13.453125 0.582031 14.34375 0.761719 15.214844 C 1.113281 16.890625 1.453125 18.394531 1.480469 18.523438 C 1.417969 18.816406 0.0820312 25.1875 0.0234375 25.484375 C -0.0390625 25.773438 0.0859375 26.230469 0.347656 26.433594 C 0.605469 26.632812 0.832031 26.640625 0.972656 26.640625 L 1.480469 26.640625 C 1.855469 26.636719 2.085938 26.664062 2.429688 26.5 C 2.597656 26.421875 2.761719 26.273438 2.84375 26.15625 C 2.925781 26.035156 2.953125 25.960938 2.984375 25.898438 C 3.261719 25.363281 4.613281 22.753906 4.902344 22.199219 L 12.765625 22.199219 C 12.453125 22.957031 11.789062 24.546875 10.800781 26.964844 C 10.199219 28.429688 9.605469 29.925781 9.132812 31.078125 C 8.664062 32.234375 8.335938 32.992188 8.253906 33.207031 C 8.125 33.558594 8.101562 34.058594 8.417969 34.410156 C 8.734375 34.761719 9.117188 34.78125 9.390625 34.757812 C 9.671875 34.734375 10.476562 34.644531 11.125 34.570312 C 11.863281 34.492188 12.335938 33.9375 12.441406 33.808594 C 12.5 33.734375 12.636719 33.570312 12.902344 33.230469 C 12.636719 3.429688 12.5 3.265625 12.441406 3.191406 C 12.335938 3.0625 11.863281 2.507812 11.125 2.429688 C 10.476562 2.355469 9.671875 2.265625 9.390625 2.242188 C 9.320312 2.238281 9.234375 2.242188 9.15625 2.242188 Z"/>
  </g></g><text x="267.72799978366356" y="304.9606084681271" fill="#ffff00" font-size="7">CXK118</text><polyline points="364.1097339516955,327.80811341931604 364.1097339516955,327.80811341931604" stroke="#888" stroke-width="0.5" fill="none" opacity="0.5"/><g transform="translate(364.1097339516955,327.80811341931604) rotate(185.89999999999998)"><g transform="scale(0.8)">
    <path stroke="#ffffff" stroke-width="2" fill="#ffff00" 
          d="M 9.15625 2.242188 C 8.921875 2.253906 8.652344 2.324219 8.417969 2.589844 C 8.101562 2.941406 8.125 3.441406 8.253906 3.792969 C 8.335938 4.007812 8.664062 4.765625 9.132812 5.921875 C 9.605469 7.074219 10.199219 8.570312 10.800781 10.035156 C 11.789062 12.453125 12.453125 14.042969 12.765625 14.800781 L 4.902344 14.800781 C 4.613281 14.246094 3.261719 11.636719 2.984375 11.101562 C 2.824219 10.792969 2.539062 10.574219 2.265625 10.476562 C 1.996094 10.378906 1.742188 10.367188 1.503906 10.359375 L 0.972656 10.359375 C 0.925781 10.359375 0.664062 10.328125 0.371094 10.546875 C 0.0742188 10.761719 0 11.164062 0.0234375 11.421875 C 0.0390625 11.613281 0.0507812 11.6875 0.09375 11.910156 C 0.136719 12.132812 0.207031 12.421875 0.277344 12.765625 C 0.417969 13.453125 0.582031 14.34375 0.761719 15.214844 C 1.113281 16.890625 1.453125 18.394531 1.480469 18.523438 C 1.417969 18.816406 0.0820312 25.1875 0.0234375 25.484375 C -0.0390625 25.773438 0.0859375 26.230469 0.347656 26.433594 C 0.605469 26.632812 0.832031 26.640625 0.972656 26.640625 L 1.480469 26.640625 C 1.855469 26.636719 2.085938 26.664062 2.429688 26.5 C 2.597656 26.421875 2.761719 26.273438 2.84375 26.15625 C 2.925781 26.035156 2.953125 25.960938 2.984375 25.898438 C 3.261719 25.363281 4.613281 22.753906 4.902344 22.199219 L 12.765625 22.199219 C 12.453125 22.957031 11.789062 24.546875 10.800781 26.964844 C 10.199219 28.429688 9.605469 29.925781 9.132812 31.078125 C 8.664062 32.234375 8.335938 32.992188 8.253906 33.207031 C 8.125 33.558594 8.101562 34.058594 8.417969 34.410156 C 8.734375 34.761719 9.117188 34.78125 9.390625 34.757812 C 9.671875 34.734375 10.476562 34.644531 11.125 34.570312 C 11.863281 34.492188 12.335938 33.9375 12.441406 33.808594 C 12.5 33.734375 12.636719 33.570312 12.902344 33.230469 C 12.636719 3.429688 12.5 3.265625 12.441406 3.191406 C 12.335938 3.0625 11.863281 2.507812 11.125 2.429688 C 10.476562 2.355469 9.671875 2.265625 9.390625 2.242188 C 9.320312 2.238281 9.234375 2.242188 9.15625 2.242188 Z"/>
  </g></g><text x="374.1097339516955" y="322.80811341931604" fill="#ffff00" font-size="7">FFT1991</text><g transform="translate(238.64411716688227,161.37162063528973) rotate(59.02000000000001)"><g transform="scale(0.8)">
    <path stroke="#ffffff" stroke-width="2" fill="#0080ff" 
          d="M 9.15625 2.242188 C 8.921875 2.253906 8.652344 2.324219 8.417969 2.589844 C 8.101562 2.941406 8.125 3.441406 8.253906 3.792969 C 8.335938 4.007812 8.664062 4.765625 9.132812 5.921875 C 9.605469 7.074219 10.199219 8.570312 10.800781 10.035156 C 11.789062 12.453125 12.453125 14.042969 12.765625 14.800781 L 4.902344 14.800781 C 4.613281 14.246094 3.261719 11.636719 2.984375 11.101562 C 2.824219 10.792969 2.539062 10.574219 2.265625 10.476562 C 1.996094 10.378906 1.742188 10.367188 1.503906 10.359375 L 0.972656 10.359375 C 0.925781 10.359375 0.664062 10.328125 0.371094 10.546875 C 0.0742188 10.761719 0 11.164062 0.0234375 11.421875 C 0.0390625 11.613281 0.0507812 11.6875 0.09375 11.910156 C 0.136719 12.132812 0.207031 12.421875 0.277344 12.765625 C 0.417969 13.453125 0.582031 14.34375 0.761719 15.214844 C 1.113281 16.890625 1.453125 18.394531 1.480469 18.523438 C 1.417969 18.816406 0.0820312 25.1875 0.0234375 25.484375 C -0.0390625 25.773438 0.0859375 26.230469 0.347656 26.433594 C 0.605469 26.632812 0.832031 26.640625 0.972656 26.640625 L 1.480469 26.640625 C 1.855469 26.636719 2.085938 26.664062 2.429688 26.5 C 2.597656 26.421875 2.761719 26.273438 2.84375 26.15625 C 2.925781 26.035156 2.953125 25.960938 2.984375 25.898438 C 3.261719 25.363281 4.613281 22.753906 4.902344 22.199219 L 12.765625 22.199219 C 12.453125 22.957031 11.789062 24.546875 10.800781 26.964844 C 10.199219 28.429688 9.605469 29.925781 9.132812 31.078125 C 8.664062 32.234375 8.335938 32.992188 8.253906 33.207031 C 8.125 33.558594 8.101562 34.058594 8.417969 34.410156 C 8.734375 34.761719 9.117188 34.78125 9.390625 34.757812 C 9.671875 34.734375 10.476562 34.644531 11.125 34.570312 C 11.863281 34.492188 12.335938 33.9375 12.441406 33.808594 C 12.5 33.734375 12.636719 33.570312 12.902344 33.230469 C 12.636719 3.429688 12.5 3.265625 12.441406 3.191406 C 12.335938 3.0625 11.863281 2.507812 11.125 2.429688 C 10.476562 2.355469 9.671875 2.265625 9.390625 2.242188 C 9.320312 2.238281 9.234375 2.242188 9.15625 2.242188 Z"/>
  </g></g><text x="248.64411716688227" y="156.37162063528973" fill="#0080ff" font-size="7">SWA137</text>
<rect x="10" y="10" width="200" height="120" fill="#000000" fill-opacity="0.8" stroke="#ffffff" stroke-width="1"/>
<text x="15" y="25" fill="#ffffff" font-size="11" font-weight="bold">Aircraft Traffic - Liberty Hill</text>

  <circle cx="20" cy="35" r="3" fill="#0080ff"/>
  <text x="30" y="39" fill="#ffffff" font-size="9">Commercial Aviation</text>

  <circle cx="20" cy="47" r="3" fill="#ffff00"/>
  <text x="30" y="51" fill="#ffffff" font-size="9">General Aviation</text>

  <circle cx="20" cy="59" r="3" fill="#ff0000"/>
  <text x="30" y="63" fill="#ffffff" font-size="9">Medical/Emergency</text>

  <circle cx="20" cy="71" r="3" fill="#00ff00"/>
  <text x="30" y="75" fill="#ffffff" font-size="9">Military/Government</text>

  <circle cx="20" cy="83" r="3" fill="#ffa500"/>
  <text x="30" y="87" fill="#ffffff" font-size="9">Balloons/Research</text>

<text x="15" y="105" fill="#ffffff" font-size="9">Aircraft: 7 | Map Coverage: ~37×28mi</text>
<text x="15" y="115" fill="#ffffff" font-size="8">Updated: 03:02:15 PM CT</text>
</svg>
